<svg xmlns="http://www.w3.org/2000/svg" xmlns:xlink="http://www.w3.org/1999/xlink" xmlns:sketch="http://www.bohemiancoding.com/sketch/ns" width="13px" height="16px" viewBox="0 0 13 16" version="1.1">
    <!-- Generator: Sketch 3.2.2 (9983) - http://www.bohemiancoding.com/sketch -->
    <title>icon</title>
    <desc>Created with Sketch.</desc>
    <defs/>
    <g id="Page-1" stroke="none" stroke-width="1" fill="none" fill-rule="evenodd" sketch:type="MSPage">
        <g id="App-Store" sketch:type="MSLayerGroup" transform="translate(-1.000000, 0.000000)" fill="#FFFFFF">
            <g id="icon" transform="translate(0.829384, 0.576000)" sketch:type="MSShapeGroup">
                <path d="M11.0272437,7.82881995 C11.0104669,5.96902062 12.553938,5.06422218 12.6245165,5.02209827 C11.7503842,3.75087955 10.3955082,3.57719056 9.9193925,3.56334161 C8.78145862,3.44389437 7.67765697,4.24251748 7.09798754,4.24251748 C6.50674788,4.24251748 5.61410325,3.5748824 4.65203713,3.59450176 C3.4140206,3.61354407 2.25583878,4.32849641 1.62063217,5.43872102 C0.309723082,7.70244823 1.28740903,11.0290828 2.54335945,12.8588761 C3.17162391,13.7555959 3.90575614,14.755606 4.86666523,14.7204065 C5.80674788,14.6823219 6.1579049,14.1225933 7.29236771,14.1225933 C8.4164173,14.1225933 8.74616936,14.7204065 9.72616936,14.6973249 C10.735095,14.6823219 11.3703016,13.7977198 11.9765826,12.8929214 C12.7026156,11.8669446 12.9941859,10.8542397 13.0057561,10.8023061 C12.9826156,10.7948046 11.0469132,10.0579248 11.0272437,7.82881995" id="Fill-2"/>
                <path d="M9.17600407,2.35963654 C9.68162391,1.72893202 10.0275743,0.870873809 9.93154126,0.000120721262 C9.19972308,0.0324349512 8.28451647,0.505030563 7.75749168,1.12188613 C7.29121069,1.66545764 6.87468176,2.55640712 6.98228507,3.39426894 C7.80435118,3.45543516 8.64840077,2.98053139 9.17600407,2.35963654" id="Fill-3"/>
            </g>
        </g>
    </g>
</svg>