<?xml version="1.0" encoding="UTF-8" standalone="no"?>
<svg width="642px" height="411px" viewBox="0 0 642 411" version="1.1" xmlns="http://www.w3.org/2000/svg" xmlns:xlink="http://www.w3.org/1999/xlink">
    <!-- Generator: Sketch 39.1 (31720) - http://www.bohemiancoding.com/sketch -->
    <title>bg-sparkles</title>
    <desc>Created with Sketch.</desc>
    <defs></defs>
    <g id="Page-1" stroke="none" stroke-width="1" fill="none" fill-rule="evenodd">
        <g id="Desktop-HD" transform="translate(-19.000000, -5.000000)">
            <g id="bg-sparkles" transform="translate(19.000000, 7.000000)">
                <path d="M504.877673,238.621002 L506.582457,243.500336 C506.854337,244.279203 507.467317,244.891171 508.245851,245.162918 L513.127569,246.866869 C515.547376,247.712069 515.547376,251.132096 513.127569,251.977296 L508.245851,253.681246 C507.467317,253.952994 506.854337,254.564961 506.582457,255.343829 L504.877673,260.223163 C504.032775,262.641789 500.610363,262.641789 499.765464,260.223163 L498.060681,255.343829 C497.788087,254.564961 497.175821,253.952994 496.396573,253.681246 L491.514856,251.977296 C489.095048,251.132096 489.095048,247.712069 491.514856,246.866869 L496.396573,245.162918 C497.175821,244.891171 497.788087,244.279203 498.060681,243.500336 L499.765464,238.621002 C500.610363,236.202376 504.032775,236.202376 504.877673,238.621002" id="Fill-1-Copy-2" fill="#ECEEF4" transform="translate(502.321212, 249.422082) scale(-1, 1) translate(-502.321212, -249.422082) "></path>
                <path d="M161.977673,120.765942 L163.682457,125.645276 C163.954337,126.424143 164.567317,127.036111 165.345851,127.307858 L170.227569,129.011809 C172.647376,129.857009 172.647376,133.277036 170.227569,134.122235 L165.345851,135.826186 C164.567317,136.097934 163.954337,136.709901 163.682457,137.488769 L161.977673,142.368103 C161.132775,144.786729 157.710363,144.786729 156.865464,142.368103 L155.160681,137.488769 C154.888087,136.709901 154.275821,136.097934 153.496573,135.826186 L148.614856,134.122235 C146.195048,133.277036 146.195048,129.857009 148.614856,129.011809 L153.496573,127.307858 C154.275821,127.036111 154.888087,126.424143 155.160681,125.645276 L156.865464,120.765942 C157.710363,118.347316 161.132775,118.347316 161.977673,120.765942" id="Fill-1-Copy-4" fill="#ECEEF4" transform="translate(159.421212, 131.567022) scale(-1, 1) translate(-159.421212, -131.567022) "></path>
                <path d="M497.472956,378.19007 L498.447118,380.978261 C498.602478,381.423328 498.952753,381.773024 499.397629,381.928308 L502.187182,382.901994 C503.569929,383.384966 503.569929,385.339267 502.187182,385.822238 L499.397629,386.795924 C498.952753,386.951209 498.602478,387.300904 498.447118,387.745971 L497.472956,390.534162 C496.990157,391.916234 495.034493,391.916234 494.551694,390.534162 L493.577532,387.745971 C493.421764,387.300904 493.071898,386.951209 492.626613,386.795924 L489.83706,385.822238 C488.454313,385.339267 488.454313,383.384966 489.83706,382.901994 L492.626613,381.928308 C493.071898,381.773024 493.421764,381.423328 493.577532,380.978261 L494.551694,378.19007 C495.034493,376.807998 496.990157,376.807998 497.472956,378.19007" id="Fill-1-Copy-3" fill="#ECEEF4" transform="translate(496.012121, 384.362116) scale(-1, 1) translate(-496.012121, -384.362116) "></path>
                <path d="M277.872956,259.435353 L278.847118,262.223544 C279.002478,262.668611 279.352753,263.018307 279.797629,263.173591 L282.587182,264.147277 C283.969929,264.630249 283.969929,266.58455 282.587182,267.067521 L279.797629,268.041207 C279.352753,268.196492 279.002478,268.546187 278.847118,268.991254 L277.872956,271.779445 C277.390157,273.161517 275.434493,273.161517 274.951694,271.779445 L273.977532,268.991254 C273.821764,268.546187 273.471898,268.196492 273.026613,268.041207 L270.23706,267.067521 C268.854313,266.58455 268.854313,264.630249 270.23706,264.147277 L273.026613,263.173591 C273.471898,263.018307 273.821764,262.668611 273.977532,262.223544 L274.951694,259.435353 C275.434493,258.053281 277.390157,258.053281 277.872956,259.435353" id="Fill-1-Copy-6" fill="#ECEEF4" transform="translate(276.412121, 265.607399) scale(-1, 1) translate(-276.412121, -265.607399) "></path>
                <path d="M588.672956,45.036554 L589.647118,47.8247447 C589.802478,48.2698118 590.152753,48.6195074 590.597629,48.7747919 L593.387182,49.7484781 C594.769929,50.2314493 594.769929,52.1857505 593.387182,52.6687217 L590.597629,53.6424079 C590.152753,53.7976923 589.802478,54.1473879 589.647118,54.5924551 L588.672956,57.3806458 C588.190157,58.7627178 586.234493,58.7627178 585.751694,57.3806458 L584.777532,54.5924551 C584.621764,54.1473879 584.271898,53.7976923 583.826613,53.6424079 L581.03706,52.6687217 C579.654313,52.1857505 579.654313,50.2314493 581.03706,49.7484781 L583.826613,48.7747919 C584.271898,48.6195074 584.621764,48.2698118 584.777532,47.8247447 L585.751694,45.036554 C586.234493,43.654482 588.190157,43.654482 588.672956,45.036554" id="Fill-1-Copy-6" fill="#ECEEF4" transform="translate(587.212121, 51.208600) scale(-1, 1) translate(-587.212121, -51.208600) "></path>
                <path d="M271.572956,9.33072211 L272.547118,12.1189128 C272.702478,12.5639799 273.052753,12.9136755 273.497629,13.06896 L276.287182,14.0426462 C277.669929,14.5256174 277.669929,16.4799186 276.287182,16.9628898 L273.497629,17.936576 C273.052753,18.0918604 272.702478,18.441556 272.547118,18.8866232 L271.572956,21.6748139 C271.090157,23.0568859 269.134493,23.0568859 268.651694,21.6748139 L267.677532,18.8866232 C267.521764,18.441556 267.171898,18.0918604 266.726613,17.936576 L263.93706,16.9628898 C262.554313,16.4799186 262.554313,14.5256174 263.93706,14.0426462 L266.726613,13.06896 C267.171898,12.9136755 267.521764,12.5639799 267.677532,12.1189128 L268.651694,9.33072211 C269.134493,7.94865009 271.090157,7.94865009 271.572956,9.33072211" id="Fill-1-Copy-5" fill="#ECEEF4" transform="translate(270.112121, 15.502768) scale(-1, 1) translate(-270.112121, -15.502768) "></path>
                <ellipse id="Oval-55-Copy" fill="#ECEEF4" transform="translate(517.908081, 139.051874) scale(-1, 1) translate(-517.908081, -139.051874) " cx="517.908081" cy="139.051874" rx="4.80808081" ry="4.80573326"></ellipse>
                <ellipse id="Oval-55-Copy-11" fill="#ECEEF4" transform="translate(39.808081, 43.805733) scale(-1, 1) translate(-39.808081, -43.805733) " cx="39.8080808" cy="43.8057333" rx="4.80808081" ry="4.80573326"></ellipse>
                <ellipse id="Oval-55-Copy-4" fill="#ECEEF4" transform="translate(353.208081, 158.844327) scale(-1, 1) translate(-353.208081, -158.844327) " cx="353.208081" cy="158.844327" rx="4.80808081" ry="4.80573326"></ellipse>
                <ellipse id="Oval-55-Copy-3" fill="#ECEEF4" transform="translate(101.800000, 267.394598) scale(-1, 1) translate(-101.800000, -267.394598) " cx="101.8" cy="267.394598" rx="7.2" ry="7.19648459"></ellipse>
                <ellipse id="Oval-55-Copy-5" stroke="#DBDDE4" stroke-width="3.6" transform="translate(424.000000, 4.497803) scale(-1, 1) translate(-424.000000, -4.497803) " cx="424" cy="4.49780287" rx="4.5" ry="4.49780287"></ellipse>
                <polygon id="Triangle-8" fill="#ECEEF4" points="9.1 170.232419 18.1 186.726129 0.1 186.726129"></polygon>
                <polygon id="Triangle-8-Copy" fill="#ECEEF4" points="632.8 317.776158 641.8 334.269868 623.8 334.269868"></polygon>
                <polygon id="Triangle-8-Copy-4" fill="#ECEEF4" points="110.8 391.548027 119.8 408.041738 101.8 408.041738"></polygon>
            </g>
        </g>
    </g>
</svg>