<?xml version="1.0" encoding="UTF-8" standalone="no"?>
<svg width="390px" height="390px" viewBox="0 0 390 390" version="1.1" xmlns="http://www.w3.org/2000/svg" xmlns:xlink="http://www.w3.org/1999/xlink" xmlns:sketch="http://www.bohemiancoding.com/sketch/ns">
    <!-- Generator: Sketch 3.1.1 (8761) - http://www.bohemiancoding.com/sketch -->
    <title>Artboard</title>
    <desc>Created with Sketch.</desc>
    <defs></defs>
    <g id="Page-1" stroke="none" stroke-width="1" fill="none" fill-rule="evenodd" sketch:type="MSPage">
        <g id="Artboard" sketch:type="MSArtboardGroup">
            <rect id="Rectangle-1" fill="#D9EDED" sketch:type="MSShapeGroup" x="0" y="0" width="390" height="390"></rect>
            <g id="Imported-Layers" sketch:type="MSLayerGroup" transform="translate(24.000000, 59.000000)">
                <path d="M248.431728,47.8003512 C248.431728,23.4808976 268.213167,9.86364878 292.613603,9.86364878 C317.012708,9.86364878 336.795479,29.577678 336.795479,53.8971317 C336.795479,78.219239 320.986296,97.9332683 296.587191,97.9332683 C282.106086,97.9332683 285.733681,90.9939512 276.536942,80.2718439 L248.431728,47.8003512" id="Fill-7" fill="#3B434F" sketch:type="MSShapeGroup"></path>
                <path d="M296.587191,103.55239 C284.445525,103.55239 281.058794,98.8474537 277.602864,92.2013659 C276.333339,89.767961 275.260763,87.0041756 272.616584,83.923278 L243.525292,49.8901073 L243.525292,47.8003512 C243.525292,22.1553951 263.647401,4.24452683 292.975564,4.24452683 C320.446016,4.24452683 342.613471,26.5180098 342.613471,53.8971317 C342.613471,82.6694244 323.151409,103.55239 296.587191,103.55239 M254.128623,45.7822439 L280.801961,76.5991805 C284.305798,80.683161 286.212747,84.3478634 287.607362,87.0267317 C290.042615,91.7130927 290.356669,92.3141463 296.587191,92.3141463 C316.618809,92.3141463 331.158467,76.1573463 331.158467,53.8971317 C331.158467,32.7156293 313.86551,15.4827707 292.613603,15.4827707 C265.438576,15.4827707 255.012233,31.3675707 254.128623,45.7822439" id="Fill-8" fill="#3B434F" sketch:type="MSShapeGroup"></path>
                <path d="M94.4518833,47.8003512 C94.4518833,23.4808976 74.6704436,9.86364878 50.2700078,9.86364878 C25.869572,9.86364878 6.0881323,29.577678 6.0881323,53.8971317 C6.0881323,78.219239 21.8986459,97.9332683 46.297751,97.9332683 C60.7761946,97.9332683 57.14993,90.9939512 66.348,80.2718439 L94.4518833,47.8003512" id="Fill-9" fill="#3B434F" sketch:type="MSShapeGroup"></path>
                <path d="M46.297751,103.55239 C19.7335331,103.55239 0.452451362,82.6694244 0.452451362,53.8971317 C0.452451362,26.5180098 22.6584981,4.24452683 50.1289494,4.24452683 C79.4611051,4.24452683 99.8054475,22.1553951 99.8054475,47.8003512 L99.8054475,49.8901073 L70.4732918,83.9431805 C67.8450817,87.0068293 66.4810739,89.767961 65.2115486,92.2040195 C61.7529572,98.8487805 58.4380856,103.55239 46.297751,103.55239 M50.2700078,15.4827707 C29.0154397,15.4827707 11.725144,32.7156293 11.725144,53.8971317 C11.725144,76.1573463 26.2634708,92.3141463 46.297751,92.3141463 C52.5269416,92.3141463 52.8383346,91.7130927 55.2775798,87.0267317 C56.6708638,84.3478634 58.579144,80.683161 62.0643502,76.6190829 L88.7536576,45.7822439 C87.8753696,31.3675707 77.4463658,15.4827707 50.2700078,15.4827707" id="Fill-10" fill="#3B434F" sketch:type="MSShapeGroup"></path>
                <path d="M78.1862568,53.9276488 C78.1862568,68.5413463 66.3080778,80.3832976 51.6513152,80.3832976 C36.997214,80.3832976 25.1163735,68.5413463 25.1163735,53.9276488 C25.1163735,39.3166049 36.997214,27.4706732 51.6513152,27.4706732 C66.3080778,27.4706732 78.1862568,39.3166049 78.1862568,53.9276488" id="Fill-11" fill="#FFFFFF" sketch:type="MSShapeGroup"></path>
                <path d="M317.711346,53.9276488 C317.711346,68.5413463 305.833167,80.3832976 291.177735,80.3832976 C276.523634,80.3832976 264.642794,68.5413463 264.642794,53.9276488 C264.642794,39.3166049 276.523634,27.4706732 291.177735,27.4706732 C305.833167,27.4706732 317.711346,39.3166049 317.711346,53.9276488" id="Fill-12" fill="#FFFFFF" sketch:type="MSShapeGroup"></path>
                <path d="M172.912272,272 L172.87235,272 C88.7270428,272 22.8115331,209.364371 22.8115331,130.087649 C22.8115331,53.9555122 84.5219066,0.602380488 172.881665,0.36222439 C258.496109,0.610341463 323.01035,56.3955512 323.01035,130.094283 C323.01035,206.708059 254.293634,272 172.952195,272 L172.912272,272 M172.877673,22.8254439 C97.8199844,23.0284488 45.3555875,67.1229659 45.3555875,130.057132 C45.3555875,196.759493 101.378381,249.20242 172.909611,249.463805 C242.056156,249.191805 300.467626,194.517151 300.467626,130.057132 C300.467626,60.648039 234.730436,23.0045659 172.877673,22.8254439" id="Fill-13" fill="#3B434F" sketch:type="MSShapeGroup"></path>
                <path d="M305.708078,131.223415 C305.708078,197.486595 244.569922,254.014829 172.631486,254.014829 C100.69172,254.014829 39.5548949,200.29682 39.5548949,134.033639 C39.5548949,67.7651512 100.69172,14.0484683 172.631486,14.0484683 C244.569922,14.0484683 305.708078,64.9549268 305.708078,131.223415" id="Fill-14" fill="#FFFFFF" sketch:type="MSShapeGroup"></path>
                <path d="M145.566911,105.764215 C142.510202,128.892176 127.086934,145.939278 111.119393,143.838907 C95.1505214,141.73721 84.6829261,121.288117 87.740965,98.1628098 C90.7990039,75.0361756 106.223603,57.9930537 122.193805,60.0947512 C138.161346,62.1911415 148.62628,82.6389073 145.566911,105.764215" id="Fill-15" fill="#3B434F" sketch:type="MSShapeGroup"></path>
                <path d="M132.857019,83.7945756 C132.857019,90.6901073 127.251946,96.2826927 120.334763,96.2826927 C113.418911,96.2826927 107.812506,90.6901073 107.812506,83.7945756 C107.812506,76.8990439 113.418911,71.3064585 120.334763,71.3064585 C127.251946,71.3064585 132.857019,76.8990439 132.857019,83.7945756" id="Fill-16" fill="#FFFFFF" sketch:type="MSShapeGroup"></path>
                <path d="M199.523066,105.764215 C202.579774,128.892176 218.003043,145.939278 233.970584,143.838907 C249.939455,141.73721 260.407051,121.288117 257.349012,98.1628098 C254.290973,75.0361756 238.866374,57.9930537 222.897502,60.0947512 C206.929961,62.1911415 196.463696,82.6389073 199.523066,105.764215" id="Fill-17" fill="#3B434F" sketch:type="MSShapeGroup"></path>
                <path d="M212.232957,83.7945756 C212.232957,90.6901073 217.838031,96.2826927 224.755214,96.2826927 C231.671066,96.2826927 237.277471,90.6901073 237.277471,83.7945756 C237.277471,76.8990439 231.671066,71.3064585 224.755214,71.3064585 C217.838031,71.3064585 212.232957,76.8990439 212.232957,83.7945756" id="Fill-18" fill="#FFFFFF" sketch:type="MSShapeGroup"></path>
                <path d="M199.330109,156.568507 C199.330109,164.717893 187.819214,171.318868 173.616233,171.318868 C159.414584,171.318868 147.902358,164.717893 147.902358,156.568507 C147.902358,150.106849 149.505899,144.616429 159.582257,142.622205 C162.214459,142.100761 170.6753,141.818146 173.616233,141.818146 C176.694233,141.818146 185.282825,142.127298 188.018825,142.69518 C197.904887,144.753093 199.330109,150.186459 199.330109,156.568507" id="Fill-19" fill="#3B434F" sketch:type="MSShapeGroup"></path>
                <path d="M180.980545,191.998829 C180.980545,195.878478 177.826693,199.02439 173.935611,199.02439 L173.387346,199.02439 C169.496265,199.02439 166.342412,195.878478 166.342412,191.998829 L166.342412,172.87922 C166.342412,168.999571 169.496265,165.853659 173.387346,165.853659 L173.935611,165.853659 C177.826693,165.853659 180.980545,168.999571 180.980545,172.87922 L180.980545,191.998829" id="Fill-20" fill="#3B434F" sketch:type="MSShapeGroup"></path>
                <path d="M212.127829,183.320039 C212.127829,192.759102 195.280669,200.412254 174.495852,200.412254 C153.713696,200.412254 133.342739,191.470751 133.342739,182.030361 C133.342739,172.592624 152.834078,186.94759 173.616233,186.94759 C194.401051,186.94759 212.127829,173.879649 212.127829,183.320039" id="Fill-21" fill="#3B434F" sketch:type="MSShapeGroup"></path>
                <path d="M184.76916,153.75961 C184.76916,156.398673 178.220591,158.537522 173.616233,158.537522 C169.013206,158.537522 162.461977,156.398673 162.461977,153.75961 C162.461977,151.66322 165.799471,149.883941 169.066436,149.237776 C169.91944,149.066615 172.663424,148.979044 173.616233,148.979044 C174.615619,148.979044 177.396864,149.077229 178.283136,149.261659 C181.488887,149.929054 184.76916,151.689756 184.76916,153.75961" id="Fill-22" fill="#E7EBE4" sketch:type="MSShapeGroup"></path>
                <path d="M39.5588872,135.002224 C40.1523969,200.81959 101.041704,254.014829 172.631486,254.014829 C101.043035,254.014829 40.1523969,200.81959 39.5588872,135.002224 M172.631486,14.0484683 C100.690389,14.0484683 39.5548949,67.7651512 39.5548949,134.033639 C39.5548949,67.7651512 100.69172,14.0484683 172.631486,14.0484683" id="Fill-23" fill="#383F4B" sketch:type="MSShapeGroup"></path>
                <path d="M172.631486,14.0484683 C100.69172,14.0484683 39.5548949,67.7651512 39.5548949,134.033639 C39.5548949,134.356059 39.5562257,134.679805 39.5588872,135.002224 C40.1523969,200.81959 101.043035,254.014829 172.631486,254.014829 C169.757089,254.014829 166.911969,253.896741 164.077494,253.729561 C167.826187,253.501346 171.54028,253.11922 175.21179,252.592468 C112.282459,243.767727 62.0976187,194.062049 62.0976187,134.033639 C62.0976187,73.8340683 112.551268,24.0248976 175.724125,15.4044878 C171.951479,14.9002927 168.13758,14.5367415 164.281097,14.3191415 C167.049035,14.1585951 169.828949,14.0484683 172.631486,14.0484683" id="Fill-24" fill="#EDEDED" sketch:type="MSShapeGroup"></path>
                <path d="M172.631486,14.0484683 C176.482646,14.0484683 180.296545,14.2249366 184.081167,14.5115317 C181.274638,14.7278049 178.484078,15.0276683 175.724125,15.4044878 C238.633494,23.8086244 288.799704,71.2029659 288.799704,131.223415 C288.799704,191.407063 238.364685,243.530224 175.21179,252.592468 C178.028965,252.987863 180.870093,253.300995 183.733844,253.52921 C180.063665,253.82642 176.36421,254.014829 172.631486,254.014829 C244.569922,254.014829 305.708078,197.486595 305.708078,131.223415 C305.708078,64.9549268 244.569922,14.0484683 172.631486,14.0484683" id="Fill-25" fill="#F7F7F7" sketch:type="MSShapeGroup"></path>
                <path d="M175.21179,252.592468 C171.54028,253.11922 167.826187,253.501346 164.077494,253.729561 C166.911969,253.896741 169.757089,254.014829 172.631486,254.014829 C176.36421,254.014829 180.063665,253.82642 183.733844,253.52921 C180.870093,253.300995 178.028965,252.987863 175.21179,252.592468 M172.631486,14.0484683 L172.631486,14.0484683 C169.828949,14.0484683 167.049035,14.1585951 164.281097,14.3191415 C168.13758,14.5367415 171.951479,14.9002927 175.724125,15.4044878 C178.484078,15.0276683 181.274638,14.7278049 184.081167,14.5115317 C180.296545,14.2249366 176.482646,14.0484683 172.631486,14.0484683" id="Fill-26" fill="#E4E4E5" sketch:type="MSShapeGroup"></path>
            </g>
        </g>
    </g>
</svg>