<?xml version="1.0" encoding="UTF-8" standalone="no"?>
<svg width="41px" height="51px" viewBox="0 0 41 51" version="1.1" xmlns="http://www.w3.org/2000/svg" xmlns:xlink="http://www.w3.org/1999/xlink">
    <!-- Generator: Sketch 40.3 (33839) - http://www.bohemiancoding.com/sketch -->
    <title>Page 1</title>
    <desc>Created with Sketch.</desc>
    <defs>
        <path d="M8.49065534,5.8858421 C8.37547737,4.28150693 7.57733488,2.73351625 6.16237488,1.69382759 L5.41792537,1.1468683 C4.3668095,0.374478411 3.13681449,0.00157722556 1.91749712,0.00146456659 C1.26705065,0.0014233844 0.619580511,0.107483082 0.00372215585,0.315593478 L0.00372215585,5.8858421 L8.49065534,5.8858421 L8.49065534,5.8858421 Z" id="path-1"></path>
        <polygon id="path-3" points="4.02404584 0.0632016812 0.103400869 0.0632016812 0.103400869 6.27417222 4.02404584 6.27417222 4.02404584 0.0632016812"></polygon>
    </defs>
    <g id="Page-1" stroke="none" stroke-width="1" fill="none" fill-rule="evenodd">
        <g id="1" transform="translate(-517.000000, -782.000000)">
            <g id="Group-3" transform="translate(517.000000, 782.000000)">
                <g id="Page-1">
                    <g id="Group-19" transform="translate(0.000000, 15.033100)">
                        <path d="M4.0441152,16.435693 L4.0441152,16.435693 C5.23300705,15.7488112 6.74819832,15.9607228 7.69414519,16.9462634 L11.7119222,21.13222 L7.38495295,24.5889352 L4.0441152,16.435693 Z" id="Fill-1" fill="#131316"></path>
                        <path d="M5.94418366,25.4269151 L5.94418366,25.4269151 C3.745968,26.1795897 1.34212169,25.0411708 0.575053953,22.8842022 L0.236469497,21.9320086 C-0.530483425,19.77504 0.629705089,17.4162992 2.82792075,16.6636246 L2.82792075,16.6636246 C5.02613642,15.91095 7.42986791,17.0493689 8.19693565,19.2063375 L8.53552011,20.1586438 C9.30258784,22.3156124 8.14239933,24.6742405 5.94418366,25.4269151" id="Fill-3" fill="#131316"></path>
                        <path d="M5.1527755,23.9808696 L4.70121475,24.1354377 C3.7054389,24.4764564 2.61654945,23.9607037 2.26900955,22.9836125 L2.26900955,22.9836125 C1.92158447,22.0065212 2.44719981,20.9380636 3.44297567,20.5971575 L3.89453642,20.4425894 C4.89031227,20.1015707 5.97920172,20.6173235 6.3266268,21.5944147 L6.3266268,21.5944147 C6.67405188,22.5715059 6.14855136,23.6399636 5.1527755,23.9808696" id="Fill-5" fill="#FFFFFF"></path>
                        <path d="M3.91454838,18.6948433 L3.98412525,18.8904192 C4.13740102,19.3216778 3.90547813,19.7931555 3.46597277,19.9436679 L3.46597277,19.9436679 C3.02658223,20.0940676 2.54597371,19.8664965 2.39269793,19.4353507 L2.32312107,19.2397747 C2.16973048,18.8085162 2.40165337,18.3369257 2.84115873,18.186526 L2.84115873,18.186526 C3.28066409,18.0360136 3.7611578,18.2635847 3.91454838,18.6948433" id="Fill-7" fill="#FFFFFF"></path>
                        <path d="M6.02351966,19.3183768 L5.94200221,19.4840982 C5.76231937,19.8494512 5.31466227,20.0027801 4.9423227,19.8263561 L4.9423227,19.8263561 C4.56986832,19.6500448 4.41372222,19.2107875 4.59351986,18.8454345 L4.67503731,18.6797132 C4.85472015,18.3143601 5.30226244,18.1610313 5.67471682,18.3374552 L5.67471682,18.3374552 C6.04705639,18.5137665 6.20320249,18.9530238 6.02351966,19.3183768" id="Fill-9" fill="#FFFFFF"></path>
                        <path d="M1.13077334,20.9936044 L1.29966373,21.0735923 C1.6720033,21.2499036 2.1196604,21.0966874 2.29934323,20.7313344 L2.29934323,20.7313344 C2.47914088,20.3658687 2.32287996,19.926724 1.95054039,19.7504127 L1.78165001,19.6704249 C1.40931044,19.4940009 0.961653336,19.6472171 0.781970503,20.0126828 L0.781970503,20.0126828 C0.602172857,20.3780358 0.758433774,20.8172932 1.13077334,20.9936044" id="Fill-11" fill="#FFFFFF"></path>
                        <path d="M11.972491,17.8291154 C11.1593832,17.8291154 10.3432901,17.5482566 9.68736169,16.9770756 L6.51380694,14.2131005 C3.7508246,11.8068176 2.44654538,8.23282449 3.02486003,4.65263514 L3.31556733,2.85335875 C3.61316344,1.0098074 5.37784404,-0.248029985 7.25664907,0.0443200381 C9.1354541,0.336557402 10.4171151,2.06801309 10.1192894,3.91156444 L9.82869688,5.71072817 C9.62031072,7.00157463 10.0904712,8.29016791 11.0865915,9.15764196 L14.2601463,11.9215044 C15.682798,13.1606404 15.8125371,15.2967671 14.5497054,16.6928371 C13.8693218,17.4451736 12.9229156,17.8291154 11.972491,17.8291154" id="Fill-13" fill="#131316"></path>
                        <path d="M14.0972032,28.5543055 L14.9418848,28.7546132 C20.2425857,30.0117746 25.5784196,26.8144004 26.8596213,21.6130485 L26.8596213,21.6130485 C28.1408231,16.4116966 24.8823065,11.1760964 19.5814907,9.91893494 L18.7368091,9.71862729 C13.4361082,8.46146587 8.10027432,11.65884 6.81907258,16.860192 L6.81907258,16.860192 C5.53787083,22.0615439 8.79638743,27.2971441 14.0972032,28.5543055" id="Fill-15" fill="#131316"></path>
                        <path d="M10.218844,23.5587252 L10.9748897,24.1142466 C13.6004405,26.0435314 17.3228028,25.5189913 19.2889808,22.942706 L19.2889808,22.942706 C21.2551588,20.3664207 20.720588,16.7139043 18.0950372,14.7846195 L17.3388767,14.2290981 C14.7133259,12.2998132 10.9909635,12.8243534 9.02490037,15.4006387 L9.02490037,15.4006387 C7.0587224,17.9770366 7.59329318,21.6294404 10.218844,23.5587252" id="Fill-17" fill="#FFFFFF"></path>
                    </g>
                    <g id="Group-22" transform="translate(11.940584, 28.101540)">
                        <mask id="mask-2" fill="white">
                            <use xlink:href="#path-1"></use>
                        </mask>
                        <g id="Clip-21"></g>
                        <path d="M3.41778563,3.41967286 L4.50254179,4.21673506 C8.26956655,6.98476591 13.6102226,6.232204 16.4310708,2.53586325 L16.4310708,2.53586325 C19.2520339,-1.1604775 18.485081,-6.40092207 14.7180562,-9.16884026 L13.6333,-9.96601512 C9.86627528,-12.7339333 4.52561927,-11.9813714 1.70477101,-8.28503066 L1.7046562,-8.28503066 C-1.11619205,-4.58868991 -0.349239131,0.651642004 3.41778563,3.41967286" id="Fill-20" fill="#E6E6E6" mask="url(#mask-2)"></path>
                    </g>
                    <g id="Group-88" transform="translate(4.707346, 0.049457)">
                        <path d="M1.25230323,20.9791052 L1.59651354,21.0483905 C2.35531472,21.2011561 3.09677909,20.7212288 3.25235112,19.9766657 L3.25235112,19.9766657 C3.40803797,19.2319899 2.91904808,18.504551 2.16013209,18.3517854 L1.81592178,18.2825002 C1.0571206,18.1297346 0.315656238,18.6096618 0.1600842,19.3542249 L0.1600842,19.3542249 C0.00439734984,20.0989007 0.493387244,20.8263397 1.25230323,20.9791052" id="Fill-23" fill="#FFFFFF"></path>
                        <path d="M1.6273524,17.0120562 L1.59623799,17.1611041 C1.52746482,17.4897303 1.74331384,17.8108083 2.07822427,17.8781784 L2.07822427,17.8781784 C2.4131347,17.9456611 2.74035264,17.7338623 2.809011,17.405236 L2.84024022,17.2561882 C2.90889858,16.927562 2.69304956,16.606484 2.35813913,16.5390012 L2.35813913,16.5390012 C2.0232287,16.4716312 1.69601076,16.68343 1.6273524,17.0120562" id="Fill-25" fill="#FFFFFF"></path>
                        <path d="M0.154079464,17.6682159 L0.229971063,17.7809875 C0.397139245,18.0298512 0.738249594,18.0984605 0.991757386,17.934429 L0.991757386,17.934429 C1.24537999,17.7702849 1.3153013,17.4355751 1.14813312,17.1868241 L1.07224152,17.0739398 C0.904958523,16.8251888 0.563848174,16.7565795 0.310340381,16.920611 L0.310340381,16.920611 C0.0568325893,17.0847551 -0.0132035308,17.4194649 0.154079464,17.6682159" id="Fill-27" fill="#FFFFFF"></path>
                        <path d="M3.88291731,18.4186823 L3.76787437,18.4931499 C3.51436658,18.6571814 3.17325623,18.588572 3.00608805,18.339821 C2.83880506,18.0909574 2.90872636,17.7562476 3.16234897,17.5922161 L3.27727709,17.5177486 C3.53078489,17.3536044 3.87189524,17.4223264 4.03917823,17.6710774 C4.20646123,17.9198284 4.13642511,18.2545382 3.88291731,18.4186823 L16.2337822,18.8270897" id="Fill-29" fill="#FFFFFF"></path>
                        <path d="M29.1119485,20.2209329 L30.1949825,20.5696124 C32.3611652,21.2669714 34.6968124,20.107598 35.4075068,17.9820612 C36.1182012,15.8566371 34.9365426,13.5648157 32.7704747,12.8674567 C30.6044067,12.1699851 28.2686447,13.3294712 27.5579503,15.4548952 L27.2026031,16.51772 C26.6782507,18.0504452 27.5356765,19.7134043 29.1119485,20.2209329" id="Fill-31" fill="#000000"></path>
                        <path d="M11.0645474,14.4106029 L9.9815134,14.0619234 C7.81533065,13.3645644 6.63378685,11.072743 7.34448125,8.94720627 C8.05517565,6.82178218 10.3908229,5.66229608 12.5570056,6.35965509 C14.7230735,7.05712676 15.9047321,9.34894816 15.1939229,11.4743723 L14.8385757,12.5370843 C14.3356934,14.0767944 12.6408193,14.9181316 11.0645474,14.4106029" id="Fill-33" fill="#000000"></path>
                        <path d="M10.4877827,28.0708634 L10.2225639,27.8339415 C7.11169726,25.1309149 5.91075002,21.0496185 7.13167478,17.398454 L7.43076346,16.5040544 C9.4045191,10.6011751 16.2418814,7.48784453 22.6866971,9.56268475 C29.1313979,11.637525 32.763517,18.1098954 30.7862021,24.0233646 L30.4519806,25.022875 C29.2451779,28.6320177 25.8919403,31.2004168 21.8290416,31.6289716 C17.7268768,32.0682289 13.5663868,30.763638 10.4877827,28.0708634 Z" id="Fill-35" fill="#FFFFFF"></path>
                        <path d="M22.4622715,10.2339181 C16.4003583,8.28232684 9.96403881,11.1938852 8.1147408,16.724314 L7.81565212,17.6187135 C6.6855447,20.9984826 7.81760395,24.8007228 10.6997625,27.3051316 L10.9723293,27.548475 C13.9043169,30.1130437 17.8348358,31.3460962 21.751003,30.9267795 L21.7521511,30.9265542 C25.5101057,30.5302199 28.6564496,28.1265282 29.7679573,24.802638 L30.1021789,23.8031276 C31.9514769,18.2725862 28.5241847,12.1855095 22.4622715,10.2339181 M15.4420115,31.665935 C13.4544783,31.026032 11.5997841,29.9899075 10.0085864,28.5982313 L9.73785659,28.3563524 C6.43261097,25.4843374 5.13820569,21.09413 6.44765151,17.178217 L6.74674019,16.2838174 C8.84346089,10.0132192 16.09484,6.69698984 22.9111915,8.89147388 C29.7274282,11.0859579 33.567015,17.9729133 31.4702943,24.2435115 L31.1359579,25.2431345 C29.8485563,29.0934801 26.2255074,31.875706 21.9058862,32.3312988 C19.706752,32.5666434 17.5030253,32.3294963 15.4420115,31.665935" id="Fill-37" fill="#000000"></path>
                        <path d="M12.0126068,14.175157 C13.7599506,12.740445 16.1205123,12.8736079 17.2850637,14.4726893 C18.4496151,16.0717707 17.9771583,18.531116 16.2299294,19.9658279 C14.4825856,21.4006526 12.1220239,21.267377 10.9574725,19.6684083 C9.79292105,18.0693269 10.265263,15.6098689 12.0126068,14.175157" id="Fill-39" fill="#000000"></path>
                        <path d="M21.9994131,30.114497 L21.9983798,30.1146097 C18.0971383,30.5322365 14.1815451,29.3036904 11.2605796,26.748923 L10.9903091,26.5077202 C8.11526894,24.0093949 6.98619483,20.2160548 8.11389118,16.8436086 L7.8190506,17.725165 C6.69135425,21.0976112 7.82054317,24.8909513 10.6955833,27.3893893 L10.965739,27.6305921 C13.8868193,30.1853595 17.8024125,31.4137929 21.7035392,30.9961661 L21.7045725,30.9961661 C25.453342,30.6007331 28.5922231,28.2022237 29.70109,24.8858817 L29.9959306,24.0042126 C28.8869489,27.3206673 25.7480677,29.7190641 21.9994131,30.114497" id="Fill-41" fill="#E6E6E6"></path>
                        <path d="M19.4151032,24.5016132 L18.1644418,24.8052291 C17.7816542,24.8926525 17.3825632,24.7642212 17.1383553,24.474913 L16.3141105,23.5032294 C16.0889616,23.2325099 16.0189255,22.875381 16.127424,22.5510358 C16.3032032,22.0252564 16.8786475,21.7395533 17.4144813,21.9121468 L19.4893874,22.5801018 C20.0252212,22.7525827 20.3162729,23.3172295 20.1404937,23.8430089 C20.0319952,24.167354 19.7562136,24.4255684 19.4151032,24.5016132" id="Fill-43" fill="#000000"></path>
                        <path d="M16.7823766,27.2203107 C15.5898107,26.8363689 14.5460429,26.0069736 13.9360398,24.8237164 C13.786438,24.5336196 13.9048106,24.1794198 14.2005696,24.0327378 C14.4959843,23.8859432 14.857187,24.0022072 15.0066739,24.2921914 C15.9280507,26.079526 18.1593326,26.7976142 19.980731,25.8936387 C20.2761457,25.746844 20.6373483,25.8631081 20.7868353,26.1530923 C20.936437,26.4431891 20.8179497,26.7973889 20.5223054,26.9441835 C19.3164212,27.5427406 17.9748276,27.6042524 16.7823766,27.2203107" id="Fill-45" fill="#000000"></path>
                        <path d="M16.8247657,27.1123496 C16.5729801,27.0312351 16.4357782,26.7651346 16.5183289,26.5180735 L17.2926299,24.2024811 C17.3752955,23.9553073 17.6464845,23.8206799 17.8982701,23.9017943 C18.1501705,23.9829088 18.2873724,24.2490093 18.2047069,24.4960704 L17.4304059,26.8116628 C17.3477403,27.0588366 17.0765513,27.193464 16.8247657,27.1123496" id="Fill-47" fill="#000000"></path>
                        <path d="M14.1667342,15.2926213 C14.7869557,14.7834027 15.6247484,14.8306068 16.0380763,15.3981827 C16.4514042,15.9657586 16.2837768,16.838753 15.6635553,17.3479715 C15.0434486,17.85719 14.2055411,17.8098733 13.7922131,17.2422974 C13.3788852,16.6748342 13.5465127,15.8018398 14.1667342,15.2926213" id="Fill-49" fill="#FFFFFF"></path>
                        <path d="M28.5124393,19.4872526 C27.9709797,17.3156384 25.9889575,16.0507035 24.085238,16.661991 C22.1816333,17.2732786 21.0772441,19.5291618 21.6187036,21.700776 C22.1601632,23.8723903 24.1423002,25.1373252 26.0459049,24.5260377 C27.9495096,23.9148628 29.0538989,21.6588669 28.5124393,19.4872526" id="Fill-51" fill="#000000"></path>
                        <path d="M26.1023472,19.1352722 C25.9101497,18.3644596 25.2066885,17.9155136 24.5310122,18.1324947 C23.8553358,18.3494759 23.4633632,19.1501432 23.6555607,19.9209559 C23.8476433,20.6917685 24.5512193,21.1407145 25.2268957,20.9237333 C25.902572,20.7067522 26.2945446,19.9060849 26.1023472,19.1352722" id="Fill-53" fill="#FFFFFF"></path>
                        <path d="M9.81055638,51.2539272 C10.5576466,51.4471374 11.3479066,51.403313 12.0681305,51.1287631 C11.9744429,50.4443599 11.8796071,49.7460996 11.7839676,49.0367988 C11.7126685,48.5086535 11.6814393,47.9669892 11.6916577,47.4343376 C11.7053205,46.7190658 11.7194425,46.0147219 11.733909,45.3243478 C10.9868188,45.1311376 10.1965587,45.1748493 9.47633483,45.4495119 C9.57002249,46.1339151 9.66485828,46.8321754 9.76049777,47.5414763 C9.83191165,48.0696215 9.86302606,48.6111732 9.85280767,49.1438248 C9.83914489,49.8592092 9.82513767,50.5635531 9.81055638,51.2539272" id="Fill-55" fill="#8CC63F"></path>
                        <path d="M9.43550721,44.7119449 C10.1703124,44.9462755 10.9618354,44.9462755 11.6966406,44.7119449 C11.6424487,44.0233733 11.5880272,43.3210573 11.5332612,42.607588 C11.4923877,42.0762883 11.4923877,41.5338354 11.5332612,41.0026484 C11.5880272,40.2891791 11.6424487,39.5867504 11.6966406,38.8982915 C10.9618354,38.6639608 10.1703124,38.6639608 9.43550721,38.8982915 C9.48969909,39.5867504 9.54423542,40.2891791 9.59900137,41.0026484 C9.63987491,41.5338354 9.63987491,42.0762883 9.59900137,42.607588 C9.54423542,43.3210573 9.48969909,44.0233733 9.43550721,44.7119449" id="Fill-57" fill="#8CC63F"></path>
                        <path d="M9.68416988,18.6687064 C10.3864829,18.9847148 11.1727245,19.0743913 11.9302627,18.9250055 C11.9574735,18.2349693 11.9859472,17.5310761 12.015569,16.816255 C12.0376131,16.2839413 12.1014493,15.7450935 12.2045517,15.2220179 C12.3429017,14.5194766 12.4797592,13.8279758 12.6146648,13.1502195 C11.9123518,12.8342111 11.1261103,12.7445345 10.3686868,12.8939203 C10.3413613,13.5839565 10.3128876,14.2878497 10.2832657,15.0027835 C10.2613364,15.5350972 10.1975002,16.073945 10.094283,16.5970206 C9.95593299,17.2994493 9.81907552,17.99095 9.68416988,18.6687064" id="Fill-59" fill="#8CC63F"></path>
                        <path d="M10.5264633,12.1373027 C11.2065025,12.4971354 11.9851664,12.6364946 12.7509712,12.5354395 C12.8235332,11.8485577 12.8983915,11.1480443 12.974972,10.4364902 C13.0319194,9.90665511 13.1312329,9.37298958 13.2685496,8.8575748 C13.452825,8.16528544 13.6349189,7.483924 13.8141425,6.81608163 C13.1341032,6.45624889 12.3554394,6.31688975 11.5896346,6.41794484 C11.5170726,7.10482657 11.4422143,7.80545269 11.3656338,8.51700674 C11.3086864,9.04684187 11.2094877,9.5805074 11.072171,10.0959222 C10.8877808,10.7880989 10.7056869,11.4694603 10.5264633,12.1373027" id="Fill-61" fill="#8CC63F"></path>
                        <g id="Group-65" transform="translate(11.710958, 0.000000)">
                            <mask id="mask-4" fill="white">
                                <use xlink:href="#path-3"></use>
                            </mask>
                            <g id="Clip-64"></g>
                            <path d="M0.103400869,5.61416817 C0.733955576,6.05229889 1.48977161,6.28324978 2.26235038,6.27389908 C2.41918537,5.60076175 2.58003881,4.914218 2.74387741,4.2170843 C2.86592396,3.69795177 3.03033662,3.17994584 3.2302266,2.68469701 C3.49877494,2.0194458 3.76364925,1.36478454 4.02404584,0.723191715 C3.39349113,0.285060987 2.6376751,0.0541101025 1.86509632,0.0634607968 C1.70826134,0.736598132 1.54740789,1.42314189 1.38356929,2.12027558 C1.26163756,2.63940811 1.09722489,3.15741404 0.897220106,3.65266287 C0.628671769,4.31791408 0.363797459,4.97257534 0.103400869,5.61416817" id="Fill-63" fill="#8CC63F" mask="url(#mask-4)"></path>
                        </g>
                        <path d="M9.43550721,38.2298971 C10.1703124,38.4642277 10.9618354,38.4642277 11.6966406,38.2298971 C11.6424487,37.5413255 11.5880272,36.8390095 11.5332612,36.1255402 C11.4923877,35.5942405 11.4923877,35.0517876 11.5332612,34.5206006 C11.5880272,33.8071313 11.6424487,33.1047026 11.6966406,32.4162437 C10.9618354,32.181913 10.1703124,32.181913 9.43550721,32.4162437 C9.48969909,33.1047026 9.54423542,33.8071313 9.59900137,34.5206006 C9.63987491,35.0517876 9.63987491,35.5942405 9.59900137,36.1255402 C9.54423542,36.8390095 9.48969909,37.5413255 9.43550721,38.2298971" id="Fill-66" fill="#8CC63F"></path>
                        <path d="M9.43550721,31.747838 C10.1703124,31.9821687 10.9618354,31.9821687 11.6966406,31.747838 C11.6424487,31.0592664 11.5880272,30.3569504 11.5332612,29.6434812 C11.4923877,29.1121815 11.4923877,28.5697285 11.5332612,28.0385415 C11.5880272,27.3250723 11.6424487,26.6226436 11.6966406,25.9341846 C10.9618354,25.699854 10.1703124,25.699854 9.43550721,25.9341846 C9.48969909,26.6226436 9.54423542,27.3250723 9.59900137,28.0385415 C9.63987491,28.5697285 9.63987491,29.1121815 9.59900137,29.6434812 C9.54423542,30.3569504 9.48969909,31.0592664 9.43550721,31.747838" id="Fill-68" fill="#8CC63F"></path>
                        <path d="M9.44712632,25.2426276 C10.1764205,25.4930684 10.9677138,25.5106432 11.7076856,25.2926481 C11.669338,24.6030626 11.6309903,23.8997327 11.5926427,23.1852495 C11.5640542,22.6531612 11.5765688,22.1108209 11.6296126,21.5806478 C11.700682,20.8686431 11.771407,20.1675663 11.8413283,19.4804593 C11.112149,19.2300184 10.3207408,19.2124436 9.58076901,19.4304387 C9.61911666,20.1199116 9.65746431,20.8233542 9.69581195,21.5378374 C9.72451528,22.0699257 9.71200063,22.6121533 9.65895688,23.1424391 C9.58777263,23.8544437 9.51716244,24.5555205 9.44712632,25.2426276" id="Fill-70" fill="#8CC63F"></path>
                        <path d="M9.39487478,22.542992 C8.92035136,22.0772598 8.46982393,21.3858717 8.14478744,20.561546 C7.81975096,19.7371077 7.67876021,18.9282163 7.71033387,18.2704006 C8.1849721,18.7361328 8.63549954,19.4275209 8.96042121,20.2518465 C9.28545769,21.0762849 9.42644844,21.8851762 9.39487478,22.542992" id="Fill-72" fill="#8CC63F"></path>
                        <path d="M2.68012158,32.3940611 C3.42514516,31.9500721 4.75663513,31.8269359 6.18870157,32.142381 C7.62076801,32.4578261 8.77085295,33.1273584 9.25100222,33.8412782 L2.68012158,32.3940611 Z" id="Fill-74" fill="#8CC63F"></path>
                        <path d="M11.7446785,35.8902858 C11.7684448,35.0352042 12.3849923,33.8707611 13.4316305,32.8611114 C14.4782686,31.8515744 15.6753122,31.2664237 16.5469748,31.2576363 L11.7446785,35.8902858 Z" id="Fill-76" fill="#8CC63F"></path>
                        <path d="M4.77902373,26.2079234 C5.64081245,26.3364673 6.74256099,27.0803544 7.63466042,28.2239556 C8.52675985,29.3674442 8.97108737,30.6052282 8.87246273,31.4550148 L4.77902373,26.2079234 Z" id="Fill-78" fill="#8CC63F"></path>
                        <path d="M7.69265262,37.8485352 C5.19431496,39.4116784 4.32001159,42.4502034 5.73990782,44.6353368 C7.15991886,46.8205828 10.3363439,47.3247317 12.8346816,45.7617012 C15.3331341,44.198558 16.2073226,41.1599203 14.7874264,38.9747869 C13.3674154,36.7896536 10.1909903,36.285392 7.69265262,37.8485352" id="Fill-80" fill="#131316"></path>
                        <path d="M4.2768303,38.994829 C2.12924731,40.7811496 3.05797219,42.9221206 4.83034528,44.817833 C6.60271837,46.7134328 9.22849881,47.1799536 10.6951241,45.8595905 C12.1617493,44.5393401 11.9139822,41.9322989 10.1416091,40.0366991 C8.36923599,38.1409866 6.76196444,36.9277622 4.2768303,38.994829" id="Fill-82" fill="#131316"></path>
                        <path d="M13.7857491,40.4571762 C11.9920208,40.9579453 11.9551657,42.498782 12.4954772,44.1182547 C13.0357886,45.7377273 14.4895547,46.7241692 15.7425124,46.3216388 C16.9954701,45.9191083 17.5730959,44.2800329 17.0327844,42.6605603 C16.492473,41.0412003 15.8613442,39.8777711 13.7857491,40.4571762" id="Fill-84" fill="#131316"></path>
                        <path d="M19.0890105,38.4161111 C18.2066702,38.4161111 17.3247891,38.0856823 16.6519831,37.4248248 L9.08337478,29.9897836 C9.0542122,29.9610555 9.02355705,29.9339047 8.99175376,29.9085564 L8.33926971,29.7910531 C6.46815717,29.4544281 5.22955116,27.6930052 5.57272815,25.8571146 C5.91601996,24.0212241 7.71066683,22.8058591 9.582009,23.1424841 L11.2410614,23.4410304 L11.6382006,23.621848 C12.5032041,24.0155911 13.2834754,24.5508339 13.9573147,25.212818 L21.5260378,32.6478593 C22.8703869,33.9685603 22.8691239,36.1085175 21.5231675,37.4276413 C20.8508207,38.0865836 19.9697434,38.4161111 19.0890105,38.4161111" id="Fill-86" fill="#131316"></path>
                    </g>
                </g>
            </g>
        </g>
    </g>
</svg>