<?xml version="1.0" encoding="UTF-8" standalone="no"?>
<svg width="50px" height="42px" viewBox="0 0 50 42" version="1.1" xmlns="http://www.w3.org/2000/svg" xmlns:xlink="http://www.w3.org/1999/xlink">
    <!-- Generator: Sketch 3.8.3 (29802) - http://www.bohemiancoding.com/sketch -->
    <title>panda-fill</title>
    <desc>Created with Sketch.</desc>
    <defs></defs>
    <g id="Page-1" stroke="none" stroke-width="1" fill="none" fill-rule="evenodd">
        <g id="panda-fill" fill="#FFFFFF">
            <path d="M41.0671175,15.5816176 L42.9963287,15.5816176 C46.854751,15.5816176 49.9871806,12.4018592 49.9871806,8.48539285 C49.9871806,4.56913263 46.854751,1.38937422 42.9963287,1.38937422 C39.1379064,1.38937422 36.0052737,4.56913263 36.0052737,8.48539285 L36.0052737,10.443626 C35.9861846,13.2744067 38.2592015,15.5816176 41.0671175,15.5816176" id="Fill-1"></path>
            <path d="M8.92016462,15.5816176 L6.99095348,15.5816176 C3.1325312,15.5816176 0.000101537428,12.4018592 0.000101537428,8.48539285 C0.000101537428,4.56913263 3.1325312,1.38937422 6.99095348,1.38937422 C10.8493758,1.38937422 13.9820085,4.56913263 13.9820085,8.48539285 L13.9820085,10.443626 C14.0010975,13.2744067 11.7280807,15.5816176 8.92016462,15.5816176" id="Fill-3"></path>
            <path d="M35.9914645,39.583078 C42.7235486,36.4976206 47.0214492,29.9946325 47.0214492,22.8523313 L47.0214492,21.0103553 C47.0214492,9.41910351 37.1428638,0.0595286723 25.0032668,0.0595286723 C12.8703893,0.0595286723 2.98488135,9.43195798 2.98488135,21.0103553 L2.98488135,22.6583631 C2.98488135,29.8944339 7.41431186,36.4750171 14.3005627,39.4943782 L14.7841339,38.3629809 L14.2856263,39.4877083 L14.8396145,39.7395989 L14.850914,39.744667 C21.5652409,42.7149932 29.3173219,42.6550056 35.993236,39.5822644 L35.9914645,39.583078 Z" id="Combined-Shape"></path>
        </g>
    </g>
</svg>