<?xml version="1.0" encoding="UTF-8" standalone="no"?>
<svg width="54px" height="43px" viewBox="0 0 54 43" version="1.1" xmlns="http://www.w3.org/2000/svg" xmlns:xlink="http://www.w3.org/1999/xlink" xmlns:sketch="http://www.bohemiancoding.com/sketch/ns">
    <!-- Generator: Sketch 3.3 (11970) - http://www.bohemiancoding.com/sketch -->
    <title>Group</title>
    <desc>Created with Sketch.</desc>
    <defs></defs>
    <g id="Page-1" stroke="none" stroke-width="1" fill="none" fill-rule="evenodd" sketch:type="MSPage">
        <g id="Group" sketch:type="MSLayerGroup">
            <path d="M45,35.4411228 L45,0.638467192 C49.4856092,0.807959608 53.0728745,4.50062112 53.0728745,9.0275304 C53.0728745,11.8550607 51.6736842,14.3619433 49.5165992,15.8777328 C50.1870445,17.8016194 50.5368421,19.8421053 50.5368421,21.9700405 C50.5368421,27.1069351 48.4539536,31.8086859 45,35.4411228 Z" id="Rectangle-1-Copy-5" fill="#E74C3C" sketch:type="MSShapeGroup"></path>
            <path d="M45,0.638467192 L45,35.4411228 C42.5878737,37.9778959 39.5070569,39.9931475 36,41.2708762 L36,2.63269422 C36.7877046,2.92010805 37.5533408,3.24520568 38.2939271,3.60566802 C39.8388664,1.76923077 42.1417004,0.60323887 44.6777328,0.63238866 C44.7856414,0.63238866 44.8930759,0.634426977 45,0.638467192 Z" id="Rectangle-1-Copy-4" fill="#E67E22" sketch:type="MSShapeGroup"></path>
            <path d="M36,2.63269422 L36,41.2708762 C33.2726695,42.2645266 30.287562,42.8121457 27.1587045,42.8121457 C27.1057617,42.8121457 27.05286,42.8119889 27,42.8116758 L27,1.0994372 C27.0625582,1.09900292 27.1251766,1.09878543 27.1878543,1.09878543 C30.3060935,1.09878543 33.284208,1.6417692 36,2.63269422 Z" id="Rectangle-1-Copy-3" fill="#F1C40F" sketch:type="MSShapeGroup"></path>
            <path d="M27,1.0994372 L27,42.8116758 C23.8072597,42.7927652 20.7666843,42.2036517 17.9999995,41.1527818 L18,2.77190888 C20.7634204,1.7099791 23.8030955,1.12163014 27,1.0994372 Z" id="Rectangle-1-Copy-2" fill="#2ECC71" sketch:type="MSShapeGroup"></path>
            <path d="M18,2.77190888 L18,41.1527848 C14.4697849,39.8119004 11.3854933,37.7192305 9,35.1000608 L9,0.604452574 C9.04794671,0.603644516 9.09599099,0.60323887 9.1441296,0.60323887 C11.7967611,0.60323887 14.1870445,1.85668016 15.7319838,3.7805668 C16.4642691,3.40811134 17.2211627,3.0712012 18,2.77190888 Z" id="Rectangle-1-Copy" fill="#3498DB" sketch:type="MSShapeGroup"></path>
            <path d="M9,0.604452574 L9,35.1000608 C5.73625188,31.5166049 3.7805668,26.9476074 3.7805668,21.9700405 C3.7805668,19.9587045 4.10121457,17.9765182 4.71336032,16.140081 C2.35222672,14.6534413 0.74898785,12.0008097 0.74898785,8.99838057 C0.74898785,4.41170136 4.43160567,0.681444919 9,0.604452574 Z" id="Rectangle-1" fill="#9B59B6" sketch:type="MSShapeGroup"></path>
        </g>
    </g>
</svg>
