<?xml version="1.0" encoding="UTF-8" standalone="no"?>
<svg width="806px" height="217px" viewBox="0 0 806 217" version="1.1" xmlns="http://www.w3.org/2000/svg" xmlns:xlink="http://www.w3.org/1999/xlink">
    <!-- Generator: Sketch 39.1 (31720) - http://www.bohemiancoding.com/sketch -->
    <title>panda-logo-with-text-nightmode</title>
    <desc>Created with Sketch.</desc>
    <defs></defs>
    <g id="Page-1" stroke="none" stroke-width="1" fill="none" fill-rule="evenodd">
        <g id="panda-logo-with-text-nightmode" fill="#FFFFFF">
            <g id="Page-1" transform="translate(316.000000, 45.000000)">
                <path d="M45.3404479,67.1232787 L18.5682983,67.1232787 L18.5682983,16.3480981 L45.526205,16.3480981 C61.1436776,16.3480981 70.8115267,25.6478727 70.8115267,41.4569497 C70.8115267,57.2660266 61.1436776,67.1232787 45.3404479,67.1232787 M48.3148742,0.353195302 L6.48329419,0.353195302 C2.39278352,0.353195302 0.347913576,2.39959292 0.347913576,6.49084602 L0.347913576,125.523488 C0.347913576,129.615512 2.39278352,131.661139 6.48329419,131.661139 L12.4329177,131.661139 C16.5226576,131.661139 18.5682983,129.615512 18.5682983,125.523488 L18.5682983,83.1181816 L48.3148742,83.1181816 C72.2991253,83.1181816 89.4034257,66.3792042 89.4034257,41.4569497 C89.4034257,16.5346951 72.2991253,0.353195302 48.3148742,0.353195302" id="Fill-1"></path>
                <path d="M155.775989,89.6279466 C155.775989,103.577223 146.10814,119.572126 130.30491,119.572126 C118.777948,119.572126 112.828324,111.946326 112.828324,104.507123 C112.828324,86.6524197 137.742132,85.5359225 150.942449,85.5359225 L155.775989,85.5359225 L155.775989,89.6279466 L155.775989,89.6279466 Z M136.626048,35.3189905 C122.310416,35.3189905 111.713011,40.1550892 106.135672,43.3164419 C102.788961,45.1770137 102.230919,48.1525406 104.090032,51.6863161 L105.57763,54.2901913 C107.6225,57.638141 110.41194,58.1956185 113.944409,56.5216437 C118.219906,54.1043654 125.842885,50.5705899 135.13922,50.5705899 C146.666182,50.5705899 155.590232,55.7783403 155.590232,71.2149945 L155.590232,73.6330438 L150.755922,73.6330438 C131.234466,73.6330438 94.6087104,76.7943966 94.6087104,105.995272 C94.6087104,123.66415 109.668141,133.893054 126.214399,133.893054 C148.153009,133.893054 156.891302,114.17855 156.891302,114.17855 L157.263587,114.17855 C157.263587,114.17855 156.705545,116.410002 156.705545,119.943777 L156.705545,125.523951 C156.705545,129.615204 158.936943,131.661601 162.840926,131.661601 L167.488708,131.661601 C171.393461,131.661601 173.624088,129.615204 173.624088,125.523951 L173.624088,72.1448948 C173.624088,48.3383664 160.052256,35.3189905 136.626048,35.3189905 L136.626048,35.3189905 L136.626048,35.3189905 Z" id="Fill-3"></path>
                <path d="M251.338704,35.3192989 C230.701935,35.3192989 219.36073,49.2685752 215.641734,57.4518525 L215.27022,57.4518525 C215.27022,57.4518525 215.828262,54.8479773 215.828262,52.0582763 L215.828262,43.6884021 C215.828262,39.597149 213.782621,37.5515224 209.692881,37.5515224 L204.487057,37.5515224 C200.582303,37.5515224 198.351676,39.597149 198.351676,43.6884021 L198.351676,125.523488 C198.351676,129.615512 200.582303,131.661139 204.487057,131.661139 L210.250152,131.661139 C214.340663,131.661139 216.385533,129.615512 216.385533,125.523488 L216.385533,86.6519571 C216.385533,67.1232787 229.585851,51.8724504 247.806235,51.8724504 C262.865666,51.8724504 265.468578,62.2879511 265.468578,75.4931529 L265.468578,125.523488 C265.468578,129.615512 267.699976,131.661139 271.603959,131.661139 L277.367825,131.661139 C281.457565,131.661139 283.502435,129.615512 283.502435,125.523488 L283.502435,71.4011288 C283.502435,47.4087745 273.463071,35.3192989 251.338704,35.3192989" id="Fill-5"></path>
                <path d="M347.456224,118.270111 C331.838752,118.270111 320.869832,105.064909 320.869832,84.6063306 C320.869832,63.2178515 333.140593,51.1283759 347.827738,51.1283759 C365.862366,51.1283759 374.600659,67.6815274 374.600659,84.4205047 C374.600659,108.412859 361.400341,118.270111 347.456224,118.270111 M385.941864,0.353195302 L380.177997,0.353195302 C376.087487,0.353195302 374.042617,2.39959292 374.042617,6.49084602 L374.042617,45.176551 C374.042617,48.7103266 374.600659,51.5000276 374.600659,51.5000276 L374.228374,51.5000276 C374.228374,51.5000276 366.606165,35.3192989 345.039069,35.3192989 C320.126033,35.3192989 302.46369,54.6621514 302.46369,84.6063306 C302.46369,113.806435 318.452677,133.893362 343.923756,133.893362 C366.97768,133.893362 374.972173,115.852062 374.972173,115.852062 L375.344458,115.852062 C375.344458,115.852062 374.972173,117.898459 374.972173,120.502335 L374.972173,125.895911 C374.972173,129.615512 377.017814,131.661139 381.107554,131.661139 L385.941864,131.661139 C390.031604,131.661139 392.077244,129.615512 392.077244,125.523488 L392.077244,6.49084602 C392.077244,2.39959292 390.031604,0.353195302 385.941864,0.353195302" id="Fill-7"></path>
                <path d="M471.835728,89.6279466 C471.835728,103.577223 462.167879,119.572126 446.364649,119.572126 C434.837687,119.572126 428.888063,111.946326 428.888063,104.507123 C428.888063,86.6524197 453.801871,85.5359225 467.002189,85.5359225 L471.835728,85.5359225 L471.835728,89.6279466 L471.835728,89.6279466 Z M452.685787,35.3189905 C438.370155,35.3189905 427.77275,40.1550892 422.195411,43.3164419 C418.8487,45.1770137 418.290658,48.1525406 420.149771,51.6863161 L421.637369,54.2901913 C423.682239,57.638141 426.471679,58.1956185 430.004148,56.5216437 C434.279645,54.1043654 441.902624,50.5705899 451.198959,50.5705899 C462.725921,50.5705899 471.649971,55.7783403 471.649971,71.2149945 L471.649971,73.6330438 L466.815661,73.6330438 C447.294205,73.6330438 410.66845,76.7943966 410.66845,105.995272 C410.66845,123.66415 425.72788,133.893054 442.274138,133.893054 C464.212749,133.893054 472.951041,114.17855 472.951041,114.17855 L473.323326,114.17855 C473.323326,114.17855 472.765284,116.410002 472.765284,119.943777 L472.765284,125.523951 C472.765284,129.615204 474.996682,131.661601 478.900665,131.661601 L483.548447,131.661601 C487.4532,131.661601 489.683827,129.615204 489.683827,125.523951 L489.683827,72.1448948 C489.683827,48.3383664 476.111996,35.3189905 452.685787,35.3189905 L452.685787,35.3189905 L452.685787,35.3189905 Z" id="Fill-9"></path>
            </g>
            <g id="Page-1">
                <path d="M214.459955,80.6545188 L224.534646,80.6545188 C244.684029,80.6545188 261.042146,64.2643938 261.042146,44.0768938 C261.042146,23.8904563 244.684029,7.50033125 224.534646,7.50033125 C204.385264,7.50033125 188.026086,23.8904563 188.026086,44.0768938 L188.026086,54.1706438 C187.926399,68.7619563 199.796507,80.6545188 214.459955,80.6545188" id="Fill-1"></path>
                <path d="M46.5827216,80.6545188 L36.5080302,80.6545188 C16.3586475,80.6545188 0.000530246914,64.2643938 0.000530246914,44.0768938 C0.000530246914,23.8904563 16.3586475,7.50033125 36.5080302,7.50033125 C56.657413,7.50033125 73.0165907,23.8904563 73.0165907,44.0768938 L73.0165907,54.1706438 C73.1162772,68.7619563 61.2461698,80.6545188 46.5827216,80.6545188" id="Fill-3"></path>
                <path d="M185.333386,198.580862 L185.333386,198.580862 C152.116598,213.67155 113.514623,213.971175 80.0984625,199.379862 L77.2054353,198.081487 C43.4902156,183.490175 21.9441625,151.809612 21.9441625,117.131737 L21.9441625,108.63705 C21.9441625,52.5721125 70.6218896,7.000425 130.571606,7.000425 C190.520261,7.000425 239.197988,52.4722375 239.197988,108.63705 L239.197988,118.13155 C239.197988,152.409925 218.250054,183.689925 185.333386,198.580862" id="Fill-5"></path>
                <path d="M82.6435326,193.551293 L79.8095368,192.279052 C48.3463353,178.661748 28.3041622,149.271892 28.3041622,117.131737 L28.3041622,108.63705 C28.3041622,56.1732017 74.053421,13.3604246 130.571606,13.3604246 C187.126643,13.3604246 232.837988,56.1089873 232.837988,108.63705 L232.837988,118.13155 C232.837988,149.865818 213.39244,178.906909 182.711989,192.78622 C151.121836,207.137904 114.401106,207.418377 82.6435326,193.551293 Z M245.557988,118.13155 L245.557988,108.63705 C245.557988,48.8863536 193.96827,0.64042535 130.571606,0.64042535 C67.2100311,0.64042535 15.5841629,48.9526131 15.5841629,108.63705 L15.5841629,117.131737 C15.5841629,154.432748 38.7167343,188.354366 74.6793658,203.918316 L77.494361,205.182297 C112.617374,220.519272 153.100651,220.210061 187.964038,204.371308 C223.112317,188.470837 245.557988,154.949192 245.557988,118.13155 Z" id="Stroke-7"></path>
            </g>
        </g>
    </g>
</svg>