<?xml version="1.0" encoding="UTF-8" standalone="no"?>
<svg width="149px" height="103px" viewBox="0 0 149 103" version="1.1" xmlns="http://www.w3.org/2000/svg" xmlns:xlink="http://www.w3.org/1999/xlink">
    <!-- Generator: Sketch 40.1 (33804) - http://www.bohemiancoding.com/sketch -->
    <title>Group 2</title>
    <desc>Created with Sketch.</desc>
    <defs></defs>
    <g id="Page-1" stroke="none" stroke-width="1" fill="none" fill-rule="evenodd">
        <g id="Choose-Interests---Popup" transform="translate(-644.000000, -194.000000)">
            <g id="Group-10" transform="translate(515.000000, 194.000000)">
                <g id="Group-9">
                    <g id="Group-2" transform="translate(129.000000, 0.000000)">
                        <g id="Group-5" transform="translate(0.472441, 72.923865)"></g>
                        <g id="Group-4" transform="translate(109.964567, 72.923865)"></g>
                        <g id="Group-8">
                            <g id="Page-1" transform="translate(14.059055, 0.374817)">
                                <path d="M98.2476923,36.9388469 L102.863077,36.9388469 C112.093846,36.9388469 119.587773,29.3865344 119.587773,20.084451 C119.587773,10.7828573 112.093846,3.23054479 102.863077,3.23054479 C93.6323077,3.23054479 86.1378947,10.7828573 86.1378947,20.084451 L86.1378947,24.7354927 C86.0922267,31.4589406 91.5301215,36.9388469 98.2476923,36.9388469" id="Fill-1" fill="#000000"></path>
                                <path d="M21.3403239,36.9388469 L16.7249393,36.9388469 C7.49417004,36.9388469 0.000242914979,29.3865344 0.000242914979,20.084451 C0.000242914979,10.7828573 7.49417004,3.23054479 16.7249393,3.23054479 C25.9557085,3.23054479 33.4501215,10.7828573 33.4501215,20.084451 L33.4501215,24.7354927 C33.4957895,31.4589406 28.0578947,36.9388469 21.3403239,36.9388469" id="Fill-3" fill="#000000"></path>
                                <path d="M84.9043239,91.2774562 C69.6871579,98.2310083 52.0029474,98.3690708 36.6944453,91.6456229 L35.3691012,91.0473521 C19.9235951,84.3239042 10.0529879,69.7259979 10.0529879,53.7469771 L10.0529879,49.8327583 C10.0529879,23.9989146 32.3530688,3.00019583 59.8170364,3.00019583 C87.2805182,3.00019583 109.580599,23.9528937 109.580599,49.8327583 L109.580599,54.207675 C109.580599,70.0026125 99.984,84.4159458 84.9043239,91.2774562 L89.4133552,0.855564219" id="Fill-5" fill="#FFFFFF"></path>
                                <path d="M84.9043239,91.2774562 L84.9043239,91.2774562 C69.6871579,98.2310083 52.0029474,98.3690708 36.6944453,91.6456229 L35.3691012,91.0473521 C19.9235951,84.3239042 10.0529879,69.7259979 10.0529879,53.7469771 L10.0529879,49.8327583 C10.0529879,23.9989146 32.3530688,3.00019583 59.8170364,3.00019583 C87.2805182,3.00019583 109.580599,23.9528937 109.580599,49.8327583 L109.580599,54.207675 C109.580599,70.0026125 99.984,84.4159458 84.9043239,91.2774562 L84.9043239,91.2774562 Z" id="Stroke-7" stroke="#000000" stroke-width="5.86137568"></path>
                                <path d="M24.6847773,34.802599 C29.5615385,26.9110052 38.81417,24.4346927 45.3519838,29.2712865 C51.8893117,34.1078802 53.2355466,44.4263385 48.3592713,52.3179323 C43.4825101,60.2090365 34.2293927,62.6858385 27.6920648,57.8492448 C21.1547368,53.0121615 19.8080162,42.6941927 24.6847773,34.802599" id="Fill-9" fill="#000000"></path>
                                <path d="M83.6114818,85.0768344 L83.6075951,85.0787927 C69.1361781,91.6911052 52.4911579,91.8179073 37.9667854,85.4396156 L36.6171498,84.8300844 C22.3420081,78.6162927 13.1180405,65.064626 13.1180405,50.3051573 L13.1180405,54.1635635 C13.1180405,68.9230323 22.3420081,82.474699 36.6171498,88.6884906 L37.9667854,89.2980219 C52.4911579,95.6763135 69.1361781,95.5495115 83.6075951,88.937199 L83.6114818,88.9352406 C97.525166,82.6044385 106.515449,69.1350219 106.515449,54.6208344 L106.515449,50.7624281 C106.515449,65.2766156 97.525166,78.7460323 83.6114818,85.0768344" id="Fill-11" fill="#E6E6E6"></path>
                                <path d="M66.4483725,66.1871427 L62.0273198,68.9777677 C60.666996,69.8100594 58.9665911,69.8100594 57.6548502,68.9777677 L53.2337976,66.1871427 C52.0192227,65.4038094 51.2904777,64.0819344 51.2904777,62.6621427 C51.2904777,60.361101 53.1366316,58.5006844 55.4200324,58.5006844 L64.2621377,58.5006844 C66.5455385,58.5006844 68.3916923,60.361101 68.3916923,62.6621427 C68.3916923,64.0819344 67.6629474,65.4527677 66.4483725,66.1871427" id="Fill-13" fill="#000000"></path>
                                <path d="M72.1326316,72.6985521 C65.3310121,79.5527188 54.3026721,79.5527188 47.5010526,72.6985521" id="Stroke-15" stroke="#010202" stroke-width="4.88447974" stroke-linecap="round"></path>
                                <path id="Stroke-17" stroke="#010202" stroke-width="3.90758379" stroke-linecap="round"></path>
                                <path d="M34.40983,36.4776104 C36.1408421,33.6767042 39.4250526,32.7974125 41.7453765,34.5143813 C44.0657004,36.2308604 44.5432713,39.8934333 42.8127449,42.6943396 C41.0817328,45.4952458 37.7975223,46.3740479 35.4771984,44.6575688 C33.1568745,42.9410896 32.6788178,39.2785167 34.40983,36.4776104" id="Fill-19" fill="#FFFFFF"></path>
                                <path d="M94.9973927,34.802599 C90.1206316,26.9110052 80.868,24.4346927 74.3301862,29.2712865 C67.7928583,34.1078802 66.4466235,44.4263385 71.3228988,52.3179323 C76.1996599,60.2090365 85.4527773,62.6858385 91.9901053,57.8492448 C98.5274332,53.0121615 99.8741538,42.6941927 94.9973927,34.802599" id="Fill-21" fill="#000000"></path>
                                <path d="M85.2723887,36.4776104 C83.5413765,33.6767042 80.257166,32.7974125 77.9368421,34.5143813 C75.6165182,36.2308604 75.1389474,39.8934333 76.8694737,42.6943396 C78.6004858,45.4952458 81.8846964,46.3740479 84.2050202,44.6575688 C86.5253441,42.9410896 87.0034008,39.2785167 85.2723887,36.4776104" id="Fill-23" fill="#FFFFFF"></path>
                            </g>
                            <path d="M5.3606866,87.3133236 C5.29928743,87.8377221 5.26771654,88.3712468 5.26771654,88.9121523 C5.26771654,96.4193765 11.3478594,102.502196 18.8480958,102.502196 L25.2542664,102.502196 C32.755928,102.502196 38.8346457,96.4177263 38.8346457,88.9121523 C38.8346457,88.3712335 38.8030797,87.8377097 38.741691,87.3133236 L5.3606866,87.3133236 Z" id="Combined-Shape" fill="#D3DCE6" opacity="0.4"></path>
                            <rect id="Rectangle-11" fill="#000000" x="0.472440945" y="72.9238653" width="33.5669291" height="27.1800878" rx="13.5900439"></rect>
                            <path d="M110.057537,87.3133236 C109.996138,87.8377221 109.964567,88.3712468 109.964567,88.9121523 C109.964567,96.4193765 116.04471,102.502196 123.544946,102.502196 L129.951117,102.502196 C137.452778,102.502196 143.531496,96.4177263 143.531496,88.9121523 C143.531496,88.3712335 143.49993,87.8377097 143.438541,87.3133236 L110.057537,87.3133236 Z" id="Combined-Shape-Copy" fill="#D3DCE6" opacity="0.4"></path>
                            <rect id="Rectangle-11-Copy" fill="#000000" x="114.759843" y="72.9238653" width="33.5669291" height="27.1800878" rx="13.5900439"></rect>
                        </g>
                    </g>
                </g>
            </g>
        </g>
    </g>
</svg>