<?xml version="1.0" encoding="UTF-8" standalone="no"?>
<svg width="77px" height="100px" viewBox="0 0 77 100" version="1.1" xmlns="http://www.w3.org/2000/svg" xmlns:xlink="http://www.w3.org/1999/xlink">
    <!-- Generator: Sketch 40.1 (33804) - http://www.bohemiancoding.com/sketch -->
    <title>Page 1</title>
    <desc>Created with Sketch.</desc>
    <defs>
        <path d="M16.1769644,11.4321164 C15.9575196,8.31600385 14.4368452,5.30932964 11.7409688,3.28993435 L10.3225938,2.22757112 C8.3199375,0.727352298 5.97646875,0.00306345733 3.65334375,0.00284463895 C2.41406964,0.00276465047 1.18046623,0.208765217 0.00709170026,0.612979639 L0.00709170026,11.4321164 L16.1769644,11.4321164 L16.1769644,11.4321164 Z" id="path-1"></path>
        <polygon id="path-3" points="7.66688125 0.122757112 0.19700625 0.122757112 0.19700625 12.186373 7.66688125 12.186373 7.66688125 0.122757112"></polygon>
    </defs>
    <g id="Page-1" stroke="none" stroke-width="1" fill="none" fill-rule="evenodd">
        <g id="tutorial-2" transform="translate(-558.000000, -390.000000)">
            <g id="Group" transform="translate(518.000000, 306.000000)">
                <g id="Group-28" transform="translate(40.000000, 84.000000)">
                    <g id="Page-1">
                        <g id="Group-19" transform="translate(0.000000, 29.198906)">
                            <path d="M7.70511875,31.9231729 L7.70511875,31.9231729 C9.970275,30.5890372 12.8571187,31.0006346 14.6594,32.9148578 L22.3143375,41.0452735 L14.0703062,47.7592779 L7.70511875,31.9231729 Z" id="Fill-1" fill="#131316"></path>
                            <path d="M11.3252562,49.3868928 L11.3252562,49.3868928 C7.13706875,50.8488184 2.5571,48.6376586 1.09563125,44.4481619 L0.4505375,42.598709 C-1.0107125,38.4092123 1.19975625,33.8278118 5.38794375,32.3658862 L5.38794375,32.3658862 C9.57613125,30.9039606 14.1558812,33.1151204 15.61735,37.3046171 L16.2624437,39.1542888 C17.7239125,43.3437856 15.5134437,47.9249672 11.3252562,49.3868928" id="Fill-3" fill="#131316"></path>
                            <path d="M9.8174125,46.5782276 L8.95706875,46.8784464 C7.05985,47.5408096 4.985225,46.5390591 4.32306875,44.6412473 L4.32306875,44.6412473 C3.66113125,42.7434354 4.66256875,40.6681619 6.5597875,40.0060175 L7.42013125,39.7057987 C9.31735,39.0434354 11.391975,40.045186 12.0539125,41.9429978 L12.0539125,41.9429978 C12.71585,43.8408096 11.7146312,45.9160832 9.8174125,46.5782276" id="Fill-5" fill="#FFFFFF"></path>
                            <path d="M7.45825937,36.3111379 L7.59082188,36.6910066 C7.88285313,37.5286433 7.44097812,38.4443982 6.60360313,38.7367396 L6.60360313,38.7367396 C5.76644687,39.0288621 4.85075937,38.586849 4.55872812,37.7494311 L4.42616562,37.3695624 C4.13391562,36.5319256 4.57579062,35.6159519 5.41316562,35.3238293 L5.41316562,35.3238293 C6.25054063,35.031488 7.16600938,35.4735011 7.45825937,36.3111379" id="Fill-7" fill="#FFFFFF"></path>
                            <path d="M11.4764125,37.5222319 L11.3211,37.8441138 C10.9787562,38.5537418 10.12585,38.8515536 9.41644375,38.508884 L9.41644375,38.508884 C8.70681875,38.1664333 8.40931875,37.3132604 8.75188125,36.6036324 L8.90719375,36.2817505 C9.2495375,35.5721225 10.102225,35.2743107 10.81185,35.6169803 L10.81185,35.6169803 C11.5212563,35.9594311 11.8187562,36.8126039 11.4764125,37.5222319" id="Fill-9" fill="#FFFFFF"></path>
                            <path d="M2.154425,40.7760394 L2.47620625,40.9314004 C3.1856125,41.2738512 4.03851875,40.9762582 4.3808625,40.2666302 L4.3808625,40.2666302 C4.723425,39.5567834 4.42570625,38.7038293 3.7163,38.3613786 L3.39451875,38.2060175 C2.6851125,37.8633479 1.83220625,38.1609409 1.4898625,38.8707877 L1.4898625,38.8707877 C1.1473,39.5804158 1.44501875,40.4335886 2.154425,40.7760394" id="Fill-11" fill="#FFFFFF"></path>
                            <path d="M22.8107906,34.629628 C21.2616031,34.629628 19.7067281,34.0841138 18.4570094,32.9747046 L12.4105406,27.6062144 C7.14632188,22.9324726 4.66132187,15.9906783 5.76316562,9.03684902 L6.31704062,5.54210066 C6.88404062,1.96135667 10.2462281,-0.481750547 13.8258531,0.086083151 C17.4054781,0.653698031 19.8473844,4.01671772 19.2799469,7.59746171 L18.7262906,11.0919912 C18.3292594,13.5992123 19.2250406,16.1020569 21.1229156,17.7869584 L27.1693844,23.1552298 C29.8799156,25.5620131 30.1271031,29.7110284 27.7210719,32.4226258 C26.4247594,33.883895 24.6216031,34.629628 22.8107906,34.629628" id="Fill-13" fill="#131316"></path>
                            <path d="M26.8589344,55.4612473 L28.4682781,55.8503063 C38.5675281,58.2921007 48.7337156,52.0818162 51.1747469,41.9791904 L51.1747469,41.9791904 C53.6157781,31.8765646 47.4074344,21.7074179 37.3079656,19.2656236 L35.6986219,18.8765646 C25.5993719,16.4347702 15.4331844,22.6450547 12.9921531,32.7476805 L12.9921531,32.7476805 C10.5511219,42.8503063 16.7594656,53.019453 26.8589344,55.4612473" id="Fill-15" fill="#131316"></path>
                            <path d="M19.469625,45.7582932 L20.9100937,46.8372867 C25.9124687,50.5845514 33.0045625,49.565733 36.7506562,44.5617943 L36.7506562,44.5617943 C40.49675,39.5578556 39.47825,32.4635449 34.475875,28.7162801 L33.0351875,27.6372867 C28.0328125,23.8900219 20.9407187,24.9088403 17.1948437,29.912779 L17.1948437,29.912779 C13.44875,34.9169365 14.46725,42.0110284 19.469625,45.7582932" id="Fill-17" fill="#FFFFFF"></path>
                        </g>
                        <g id="Group-22" transform="translate(22.750000, 54.581838)">
                            <mask id="mask-2" fill="white">
                                <use xlink:href="#path-1"></use>
                            </mask>
                            <g id="Clip-21"></g>
                            <path d="M6.51179375,6.64205689 L8.57854375,8.19019694 C15.7557313,13.5665646 25.9311063,12.1048578 31.305575,4.9254267 L31.305575,4.9254267 C36.6802625,-2.25400438 35.2190125,-12.4325602 28.041825,-17.808709 L25.975075,-19.3570678 C18.7978875,-24.7332166 8.6225125,-23.2715098 3.24804375,-16.0920788 L3.247825,-16.0920788 C-2.12664375,-8.9126477 -0.66539375,1.26568928 6.51179375,6.64205689" id="Fill-20" fill="#E6E6E6" mask="url(#mask-2)"></path>
                        </g>
                        <g id="Group-88" transform="translate(8.968750, 0.096061)">
                            <path d="M2.38597187,40.7478775 L3.04178437,40.8824508 C4.48750312,41.1791685 5.90019062,40.2470022 6.19659687,38.8008315 L6.19659687,38.8008315 C6.49322187,37.354442 5.56156562,35.9415317 4.11562812,35.644814 L3.45981562,35.5102407 C2.01409687,35.213523 0.601409375,36.1456893 0.305003125,37.59186 L0.305003125,37.59186 C0.008378125,39.0382495 0.940034375,40.4511597 2.38597187,40.7478775" id="Fill-23" fill="#FFFFFF"></path>
                            <path d="M3.10054063,33.0426477 L3.04125938,33.3321444 C2.91022813,33.9704376 3.32147813,34.59407 3.95957188,34.7249234 L3.95957188,34.7249234 C4.59766563,34.8559956 5.22110313,34.4446171 5.35191563,33.8063239 L5.41141563,33.5168271 C5.54222813,32.8785339 5.13097813,32.2549015 4.49288438,32.1238293 L4.49288438,32.1238293 C3.85479063,31.9929759 3.23135313,32.4043545 3.10054063,33.0426477" id="Fill-25" fill="#FFFFFF"></path>
                            <path d="M0.2935625,34.3171116 L0.43815625,34.5361488 C0.75665625,35.0195186 1.4065625,35.152779 1.8895625,34.8341794 L1.8895625,34.8341794 C2.37278125,34.5153611 2.506,33.8652516 2.1875,33.3821007 L2.04290625,33.1628446 C1.7241875,32.6796937 1.07428125,32.5464333 0.59128125,32.8650328 L0.59128125,32.8650328 C0.10828125,33.1838512 -0.02515625,33.8339606 0.2935625,34.3171116" id="Fill-27" fill="#FFFFFF"></path>
                            <path d="M7.39799375,35.7747484 L7.17880625,35.9193873 C6.69580625,36.2379869 6.0459,36.1047265 5.7274,35.6215755 C5.40868125,35.1382057 5.5419,34.4880963 6.02511875,34.1694967 L6.2440875,34.0248578 C6.7270875,33.7060394 7.37699375,33.8395186 7.6957125,34.3226696 C8.01443125,34.8058206 7.88099375,35.45593 7.39799375,35.7747484 L30.9296875,36.5680012" id="Fill-29" fill="#FFFFFF"></path>
                            <path d="M55.4660313,39.2752735 L57.5295,39.9525164 C61.6566563,41.3070022 66.1066875,39.0551422 67.46075,34.9266958 C68.8148125,30.7984683 66.5634375,26.347046 62.4365,24.9925602 C58.3095625,23.6378556 53.8593125,25.8899344 52.50525,30.0181619 L51.8282188,32.0824945 C50.8291875,35.0595186 52.4628125,38.2894967 55.4660313,39.2752735" id="Fill-31" fill="#000000"></path>
                            <path d="M21.0809156,27.9898249 L19.0174469,27.3125821 C14.8902906,25.9580963 12.6391344,21.506674 13.9931969,17.3782276 C15.3472594,13.25 19.7972906,10.9979212 23.9244469,12.352407 C28.0513844,13.7071116 30.3027594,18.1585339 28.9484781,22.2867615 L28.2714469,24.3508753 C27.3133219,27.3414661 24.0841344,28.9756018 21.0809156,27.9898249" id="Fill-33" fill="#000000"></path>
                            <path d="M41.59015,61.4331947 L41.59015,61.4331947 C33.7744313,62.2863676 25.8475875,59.7524508 19.982025,54.5222538 L19.4767125,54.0620788 C13.5496813,48.8119694 11.2615563,40.8848359 13.5877438,33.793151 L14.1575875,32.0559519 C17.9181188,20.590744 30.9451188,14.543698 43.2242125,18.5736761 C55.5030875,22.6036543 62.4232438,35.1749891 58.6559313,46.6607659 L58.01915,48.6021225 C55.7198688,55.6121882 49.3310563,60.6008096 41.59015,61.4331947" id="Fill-35" fill="#FFFFFF"></path>
                            <path d="M42.7966219,19.8774179 C31.2470594,16.0868271 18.9841531,21.7419694 15.4607469,32.4837637 L14.8909031,34.2209628 C12.7377469,40.7855142 14.8946219,48.1706346 20.3859031,53.0349672 L20.9052156,53.5076149 C26.4914344,58.4887965 33.9801219,60.8837637 41.4414656,60.0693217 L41.4436531,60.068884 C48.6035594,59.299081 54.5981844,54.630372 56.7159031,48.1743545 L57.3526844,46.2329978 C60.8760906,35.4909847 54.3461844,23.6680088 42.7966219,19.8774179 M29.4211531,61.5049891 C25.6343719,60.2621007 22.1006844,58.249628 19.0690281,55.5465646 L18.5532156,55.0767615 C12.2558406,49.4984245 9.78965313,40.971291 12.2844969,33.3653829 L12.8543406,31.6281838 C16.8491531,19.4487527 30.6649656,13.0076149 43.6519344,17.2699781 C56.6386844,21.5323414 63.9541219,34.9089278 59.9593094,47.0883589 L59.3223094,49.0299344 C56.8694656,56.5084902 49.9665906,61.9124289 41.7365594,62.7973304 C37.5466219,63.254442 33.3479344,62.7938293 29.4211531,61.5049891" id="Fill-37" fill="#000000"></path>
                            <path d="M22.8872219,27.5325164 C26.2163781,24.7458643 30.7138781,25.0045077 32.9326594,28.1104158 C35.1514406,31.2163239 34.2512844,35.9931291 30.9223469,38.7797812 C27.5931906,41.5666521 23.0956906,41.3077899 20.8769094,38.2021007 C18.6581281,35.0961926 19.5580656,30.3191685 22.8872219,27.5325164" id="Fill-39" fill="#000000"></path>
                            <path d="M41.9147531,58.4916193 L41.9127844,58.4918381 C34.4798781,59.3029978 27.0196281,56.9167834 21.4544094,51.9546389 L20.9394719,51.4861488 C15.4617531,46.6336324 13.3105656,39.2657987 15.4591281,32.7154705 L14.8973781,34.4277243 C12.7488156,40.9780525 14.9002219,48.3458862 20.3779406,53.1986214 L20.8926594,53.6671116 C26.4580969,58.629256 33.9183469,61.0152516 41.3510344,60.2040919 L41.3530031,60.2040919 C48.4954094,59.4360394 54.4758156,54.7773961 56.5885031,48.3360394 L57.1502531,46.6235667 C55.0373469,53.0651422 49.0569406,57.7235667 41.9147531,58.4916193" id="Fill-41" fill="#E6E6E6"></path>
                            <path d="M36.9909531,47.5896718 L34.6081094,48.1793873 C33.8787969,48.3491904 33.1184219,48.0997374 32.6531406,47.5378118 L31.0827344,45.6505033 C30.6537656,45.1246827 30.5203281,44.4310284 30.7270469,43.8010503 C31.0619531,42.7798249 32.1583281,42.2249015 33.1792344,42.5601313 L37.1324844,43.8575055 C38.1533906,44.1925164 38.7079219,45.2892341 38.3730156,46.3104595 C38.1662969,46.9404376 37.6408594,47.4419694 36.9909531,47.5896718" id="Fill-43" fill="#000000"></path>
                            <path d="M31.9749063,52.8702188 C29.70275,52.1244858 27.7140938,50.5135449 26.551875,48.2152954 C26.2668438,47.6518381 26.492375,46.9638731 27.055875,46.6789716 C27.6187188,46.3938512 28.3069063,46.6196718 28.5917188,47.1829103 C30.3471875,50.6544639 34.598375,52.0492123 38.068625,50.2934136 C38.6314688,50.0082932 39.3196563,50.2341138 39.6044688,50.7973523 C39.8895,51.3608096 39.66375,52.0487746 39.1004688,52.333895 C36.8029375,53.496477 34.2468438,53.6159519 31.9749063,52.8702188" id="Fill-45" fill="#000000"></path>
                            <path d="M32.0556688,52.6605252 C31.57595,52.5029759 31.3145438,51.9861269 31.471825,51.5062582 L32.947075,47.0086652 C33.104575,46.5285777 33.6212625,46.2670897 34.1009813,46.4246389 C34.5809188,46.5821882 34.842325,47.0990372 34.684825,47.5789059 L33.209575,52.0764989 C33.052075,52.5565864 32.5353875,52.8180744 32.0556688,52.6605252" id="Fill-47" fill="#000000"></path>
                            <path d="M26.9914094,29.7029759 C28.1730969,28.7139168 29.7693156,28.8056018 30.5568156,29.9080088 C31.3443156,31.0104158 31.0249406,32.7060394 29.8432531,33.6950985 C28.6617844,34.6841575 27.0653469,34.5922538 26.2778469,33.4898468 C25.4903469,32.3876586 25.8097219,30.692035 26.9914094,29.7029759" id="Fill-49" fill="#FFFFFF"></path>
                            <path d="M54.3238063,37.8502407 C53.2921813,33.6322976 49.5159,31.1754048 45.8888063,32.3627133 C42.2619313,33.5500219 40.157775,37.9316411 41.1894,42.1495842 C42.221025,46.3675274 45.997525,48.8244201 49.6244,47.6371116 C53.251275,46.4500219 55.3554313,42.0681838 54.3238063,37.8502407" id="Fill-51" fill="#000000"></path>
                            <path d="M49.7319375,37.1665864 C49.36575,35.6694311 48.0254688,34.7974398 46.738125,35.218884 C45.4507813,35.6403282 44.7039688,37.1954705 45.0701563,38.6926258 C45.436125,40.1897812 46.776625,41.0617724 48.0639688,40.6403282 C49.3513125,40.218884 50.098125,38.6637418 49.7319375,37.1665864" id="Fill-53" fill="#FFFFFF"></path>
                            <path d="M18.6917281,99.5508972 C20.1151344,99.9261707 21.6207906,99.8410503 22.9930094,99.3077899 C22.8145094,97.9784683 22.6338219,96.6222319 22.4516031,95.2445514 C22.3157594,94.2187309 22.2562594,93.1666521 22.2757281,92.1320788 C22.3017594,90.7428009 22.3286656,89.3747484 22.3562281,88.0338293 C20.9328219,87.6585558 19.4271656,87.7434573 18.0549469,88.2769365 C18.2334469,89.6062582 18.4141344,90.9624945 18.5963531,92.3401751 C18.7324156,93.3659956 18.7916969,94.4178556 18.7722281,95.4524289 C18.7461969,96.8419256 18.7195094,98.2099781 18.6917281,99.5508972" id="Fill-55" fill="#8CC63F"></path>
                            <path d="M17.9771594,86.8443545 C19.3771594,87.2994967 20.8852219,87.2994967 22.2852219,86.8443545 C22.1819719,85.5069365 22.0782844,84.1428228 21.9739406,82.757046 C21.8960656,81.7250985 21.8960656,80.671488 21.9739406,79.6397593 C22.0782844,78.2539825 22.1819719,76.8896499 22.2852219,75.5524508 C20.8852219,75.0973085 19.3771594,75.0973085 17.9771594,75.5524508 C18.0804094,76.8896499 18.1843156,78.2539825 18.2886594,79.6397593 C18.3665344,80.671488 18.3665344,81.7250985 18.2886594,82.757046 C18.1843156,84.1428228 18.0804094,85.5069365 17.9771594,86.8443545" id="Fill-57" fill="#8CC63F"></path>
                            <path d="M18.4509281,36.260372 C19.7890219,36.8741575 21.2870219,37.048337 22.7303344,36.7581838 C22.7821781,35.4179212 22.8364281,34.050744 22.8928656,32.6623414 C22.9348656,31.6284245 23.0564906,30.5818162 23.2529281,29.5658425 C23.5165219,28.201291 23.7772719,26.8581838 24.0343031,25.5417724 C22.6962094,24.9279869 21.1982094,24.7538074 19.7551156,25.0439606 C19.7030531,26.3842232 19.6488031,27.7514004 19.5923656,29.1400219 C19.5505844,30.1739387 19.4289594,31.220547 19.2323031,32.2365208 C18.9687094,33.6008534 18.7079594,34.9439606 18.4509281,36.260372" id="Fill-59" fill="#8CC63F"></path>
                            <path d="M20.0557219,23.5743764 C21.3513781,24.2732823 22.8349406,24.5439606 24.2940031,24.3476805 C24.4322531,23.0135449 24.5748781,21.6529322 24.7207844,20.2708753 C24.8292844,19.2417724 25.0185031,18.2052298 25.2801281,17.2041357 C25.6312219,15.8594967 25.9781594,14.5360832 26.3196281,13.2389278 C25.0239719,12.5400219 23.5404094,12.2693435 22.0813469,12.4656236 C21.9430969,13.7997593 21.8004719,15.1605908 21.6545656,16.5426477 C21.5460656,17.5717505 21.3570656,18.6082932 21.0954406,19.6093873 C20.7441281,20.9538074 20.3971906,22.277221 20.0557219,23.5743764" id="Fill-61" fill="#8CC63F"></path>
                            <g id="Group-65" transform="translate(22.312500, 0.000000)">
                                <mask id="mask-4" fill="white">
                                    <use xlink:href="#path-3"></use>
                                </mask>
                                <g id="Clip-64"></g>
                                <path d="M0.19700625,10.904442 C1.39838125,11.7554267 2.8384125,12.2040044 4.31038125,12.1858425 C4.60919375,10.8784026 4.9156625,9.54492341 5.22781875,8.19087527 C5.46035,7.18256018 5.7736,6.17643326 6.15444375,5.21450766 C6.6661,3.92238512 7.17075625,2.65083151 7.66688125,1.40466083 C6.46550625,0.553676149 5.025475,0.105098468 3.55350625,0.123260394 C3.25469375,1.43070022 2.948225,2.76417943 2.63606875,4.11822757 C2.40375625,5.12654267 2.09050625,6.13266958 1.70944375,7.09459519 C1.1977875,8.38671772 0.69313125,9.65827133 0.19700625,10.904442" id="Fill-63" fill="#8CC63F" mask="url(#mask-4)"></path>
                            </g>
                            <path d="M17.9771594,74.2542232 C19.3771594,74.7093654 20.8852219,74.7093654 22.2852219,74.2542232 C22.1819719,72.9168053 22.0782844,71.5526915 21.9739406,70.1669147 C21.8960656,69.1349672 21.8960656,68.0813567 21.9739406,67.049628 C22.0782844,65.6638512 22.1819719,64.2995186 22.2852219,62.9623195 C20.8852219,62.5071772 19.3771594,62.5071772 17.9771594,62.9623195 C18.0804094,64.2995186 18.1843156,65.6638512 18.2886594,67.049628 C18.3665344,68.0813567 18.3665344,69.1349672 18.2886594,70.1669147 C18.1843156,71.5526915 18.0804094,72.9168053 17.9771594,74.2542232" id="Fill-66" fill="#8CC63F"></path>
                            <path d="M17.9771594,61.66407 C19.3771594,62.1192123 20.8852219,62.1192123 22.2852219,61.66407 C22.1819719,60.3266521 22.0782844,58.9625383 21.9739406,57.5767615 C21.8960656,56.544814 21.8960656,55.4912035 21.9739406,54.4594748 C22.0782844,53.073698 22.1819719,51.7093654 22.2852219,50.3721663 C20.8852219,49.9170241 19.3771594,49.9170241 17.9771594,50.3721663 C18.0804094,51.7093654 18.1843156,53.073698 18.2886594,54.4594748 C18.3665344,55.4912035 18.3665344,56.544814 18.2886594,57.5767615 C18.1843156,58.9625383 18.0804094,60.3266521 17.9771594,61.66407" id="Fill-68" fill="#8CC63F"></path>
                            <path d="M17.9992969,49.0289497 C19.3887969,49.5153829 20.8964219,49.5495186 22.3062656,49.126105 C22.2332031,47.7867177 22.1601406,46.4206346 22.0870781,45.0328884 C22.0326094,43.9994092 22.0564531,42.9460175 22.1575156,41.9162582 C22.2929219,40.533326 22.4276719,39.1716193 22.5608906,37.837046 C21.1716094,37.3506127 19.6637656,37.316477 18.2539219,37.7398906 C18.3269844,39.0790591 18.4000469,40.4453611 18.4731094,41.8331072 C18.5277969,42.8665864 18.5039531,43.9197593 18.4028906,44.9497374 C18.2672656,46.3326696 18.1327344,47.6943764 17.9992969,49.0289497" id="Fill-70" fill="#8CC63F"></path>
                            <path d="M17.8997438,43.7854267 C16.99565,42.8808315 16.137275,41.5379431 15.5179938,39.936849 C14.8987125,38.3355361 14.6300875,36.7644201 14.6902438,35.4867396 C15.5945563,36.3913348 16.4529313,37.7342232 17.0719938,39.3353173 C17.691275,40.9366302 17.9599,42.5077462 17.8997438,43.7854267" id="Fill-72" fill="#8CC63F"></path>
                            <path d="M5.10634687,62.9192341 C6.52581562,62.0568709 9.06265937,61.8177024 11.7911281,62.4303939 C14.5195969,63.0430853 16.7108156,64.343523 17.6256281,65.7301751 L5.10634687,62.9192341 Z" id="Fill-74" fill="#8CC63F"></path>
                            <path d="M22.3767469,69.7099781 C22.4220281,68.0491466 23.5967156,65.7874398 25.5908406,63.8263895 C27.5849656,61.865558 29.8656531,60.7290153 31.5264031,60.7119475 L22.3767469,69.7099781 Z" id="Fill-76" fill="#8CC63F"></path>
                            <path d="M9.10531563,50.9038512 C10.7472531,51.153523 12.8463781,52.5983807 14.5460656,54.8196061 C16.2457531,57.0406127 17.0923156,59.4447702 16.9044094,61.0953173 L9.10531563,50.9038512 Z" id="Fill-78" fill="#8CC63F"></path>
                            <path d="M14.6565563,73.5135011 C9.89655625,76.5496061 8.230775,82.4513567 10.9360563,86.695558 C13.6415563,90.9399781 19.6934938,91.9191904 24.4534938,88.8833042 C29.2137125,85.8471991 30.879275,79.9452298 28.1739938,75.7010284 C25.4684938,71.4568271 19.4165563,70.4773961 14.6565563,73.5135011" id="Fill-80" fill="#131316"></path>
                            <path d="M8.14850312,75.7399562 C4.05678437,79.2095405 5.82625312,83.367965 9.20309687,87.0500219 C12.5799406,90.73186 17.5827531,91.6379869 20.3770656,89.0734354 C23.1713781,86.5091028 22.6993156,81.4454267 19.3224719,77.7635886 C15.9456281,74.0815317 12.8833469,71.7250766 8.14850312,75.7399562" id="Fill-82" fill="#131316"></path>
                            <path d="M26.2655312,78.5802845 C22.848,79.5529322 22.7777812,82.5457112 23.8072187,85.6912254 C24.8366562,88.8367396 27.6064687,90.7527133 29.9936875,89.9708753 C32.3809062,89.1890372 33.4814375,86.0054486 32.452,82.8599344 C31.4225625,79.7146389 30.2200937,77.4549015 26.2655312,78.5802845" id="Fill-84" fill="#131316"></path>
                            <path d="M36.3696594,74.6159081 C34.6885656,74.6159081 33.0083469,73.9741138 31.7264719,72.6905252 L17.3062531,58.2493873 C17.2506906,58.1935886 17.1922844,58.1408534 17.1316906,58.0916193 L15.8885344,57.8633917 C12.3235656,57.2095624 9.96369062,53.788337 10.6175344,50.2224726 C11.2715969,46.6566083 14.6908781,44.2959956 18.2562844,44.9498249 L21.4172219,45.5296937 L22.1738781,45.8808972 C23.8219406,46.6456674 25.3085656,47.6852735 26.5924094,48.9710503 L41.0128469,63.4121882 C43.5741906,65.9773961 43.5717844,70.1338512 41.0073781,72.6959956 C39.7263781,73.9758643 38.0476906,74.6159081 36.3696594,74.6159081" id="Fill-86" fill="#131316"></path>
                        </g>
                    </g>
                </g>
            </g>
        </g>
    </g>
</svg>