<?xml version="1.0" encoding="UTF-8" standalone="no"?>
<svg width="71px" height="91px" viewBox="0 0 71 91" version="1.1" xmlns="http://www.w3.org/2000/svg" xmlns:xlink="http://www.w3.org/1999/xlink">
    <!-- Generator: Sketch 40.1 (33804) - http://www.bohemiancoding.com/sketch -->
    <title>Group 24</title>
    <desc>Created with Sketch.</desc>
    <defs>
        <polygon id="path-1" points="0.212237584 8.42592593 47.8270295 8.42592593 47.8270295 0.0848611111 0.212237584 0.0848611111"></polygon>
        <path d="M0.17901291,6.63217034 C2.09316891,3.02164736 5.75369986,0.461875089 10.0967718,0.177185185 L12.022349,0.0507962963 C12.2894329,0.033462963 12.5560403,0.0247962963 12.8197886,0.0247962963 C17.4494867,0.0242692175 21.542918,2.67688958 23.5788771,6.63217135 L0.179011865,6.63217231 L0.17901291,6.63217034 Z" id="path-3"></path>
        <polygon id="path-5" points="1.61447891e-21 0.0836057962 1.61447891e-21 17.5675053 17.4823961 17.5675053 17.4823961 0.0836057962 0 0.0836057962"></polygon>
    </defs>
    <g id="Page-1" stroke="none" stroke-width="1" fill="none" fill-rule="evenodd">
        <g id="tutorial-1" transform="translate(-558.000000, -395.000000)">
            <g id="Group" transform="translate(518.000000, 306.000000)">
                <g id="Group-28" transform="translate(40.000000, 89.000000)">
                    <g id="Group-24">
                        <g id="Page-1">
                            <g id="Group-22" transform="translate(7.147651, 25.754204)">
                                <g id="Group-3" transform="translate(0.000000, 56.814815)">
                                    <mask id="mask-2" fill="white">
                                        <use xlink:href="#path-1"></use>
                                    </mask>
                                    <g id="Clip-2"></g>
                                    <path d="M47.8270295,4.2554537 C47.8270295,6.55886111 37.1679758,8.4260463 24.0196336,8.4260463 C10.871053,8.4260463 0.212237584,6.55886111 0.212237584,4.2554537 C0.212237584,1.9520463 10.871053,0.0848611111 24.0196336,0.0848611111 C37.1679758,0.0848611111 47.8270295,1.9520463 47.8270295,4.2554537" id="Fill-1" fill="#E6E6E6" mask="url(#mask-2)"></path>
                                </g>
                                <path d="M17.8191416,63.0649741 C14.1357188,63.0649741 11.0093362,60.2071407 10.7034168,56.4320852 L9.60101074,42.8376963 C9.27841342,38.8623444 12.2065678,35.3754556 16.1408732,35.0497333 C20.0789906,34.725937 23.5263027,37.6827148 23.8484235,41.6580667 L24.9508295,55.2524556 C25.2731886,59.2280481 22.3450342,62.7146963 18.4107289,63.0401778 C18.2122624,63.0567889 18.0145107,63.0649741 17.8191416,63.0649741" id="Fill-4" fill="#131316"></path>
                                <path d="M37.1054577,63.0099407 C36.6487228,63.0099407 36.185555,62.9654037 35.7207195,62.8732 C31.8469309,62.1045148 29.3233336,58.3087556 30.0840819,54.3947926 L33.011998,39.3289963 C33.7727463,35.4150333 37.5314577,32.8651074 41.4028638,33.6335519 C45.2766523,34.402237 47.8002497,38.198237 47.0392631,42.1119593 L44.111347,57.1777556 C43.4423268,60.6220333 40.4529409,63.0099407 37.1054577,63.0099407" id="Fill-6" fill="#131316"></path>
                                <path d="M39.0121889,30.0867667 C36.5784138,30.0867667 34.2937862,28.5681741 33.4139104,26.1234519 C32.2895849,22.9996 33.8847023,19.5464148 36.9760614,18.4106 L45.2513735,15.3698037 C48.232897,14.2741926 50.4260346,11.7526741 51.1184037,8.62424815 L51.9589674,4.82511852 C52.6770681,1.58137778 55.8632527,-0.460585185 59.0713567,0.265007407 C62.2818433,0.990359259 64.302246,4.20785926 63.5846218,7.45184074 L62.7438198,11.2504889 C61.1608534,18.4069889 56.1432023,24.1758593 49.3224372,26.6819704 L41.0473634,29.7227667 C40.3754842,29.9697667 39.6881185,30.0867667 39.0121889,30.0867667" id="Fill-8" fill="#131316"></path>
                                <path d="M56.8185362,11.816037 L56.1130631,11.6301852 C54.557496,11.2204444 53.6249658,9.61422222 54.0304758,8.04218519 L54.0304758,8.04218519 C54.4359859,6.47038889 56.0258617,5.52837037 57.5814289,5.93811111 L58.286902,6.12396296 C59.8424691,6.5337037 60.7749993,8.13992593 60.3694893,9.71196296 L60.3694893,9.71196296 C59.9639792,11.2837593 58.3741034,12.2257778 56.8185362,11.816037" id="Fill-10" fill="#FFFFFF"></path>
                                <path d="M59.8244332,3.86268519 L59.7431883,4.17733333 C59.5642587,4.87090741 58.8625977,5.28666667 58.1761849,5.10587037 L58.1761849,5.10587037 C57.4895339,4.92507407 57.0780674,4.21609259 57.256997,3.52251852 L57.3382419,3.20787037 C57.5171715,2.51405556 58.2188326,2.0982963 58.9052453,2.27909259 C59.5918963,2.46012963 60.0033628,3.16887037 59.8244332,3.86268519" id="Fill-12" fill="#FFFFFF"></path>
                                <path d="M61.9548859,6.48468889 L61.7082919,6.63081852 C61.164594,6.95292963 60.4653154,6.76876296 60.1465302,6.21939259 L60.1465302,6.21939259 C59.827745,5.67002222 60.0100101,4.96368889 60.5537081,4.64133704 L60.800302,4.49520741 C61.344,4.1730963 62.0430403,4.35726296 62.3620638,4.90663333 C62.680849,5.4560037 62.4985839,6.16257778 61.9548859,6.48468889" id="Fill-14" fill="#FFFFFF"></path>
                                <path d="M54.311307,4.47147037 L54.4559279,4.72063704 C54.7747131,5.27000741 55.4739916,5.45417407 56.0176896,5.13206296 C56.5613876,4.80971111 56.7436527,4.10337778 56.4248674,3.55400741 L56.2802466,3.30484074 C55.9612232,2.75547037 55.2621829,2.5713037 54.7184849,2.89341481 C54.1747869,3.21552593 53.9925218,3.9221 54.311307,4.47147037" id="Fill-16" fill="#FFFFFF"></path>
                                <path d="M30.023303,52.9855204 L28.2516386,53.1015574 C17.1332292,53.8305204 7.53536342,45.3140759 6.81392718,34.0794278 L6.81392718,34.0794278 C6.09272919,22.8450204 14.5212393,13.1470204 25.6396487,12.4180574 L27.4113131,12.3020204 C38.5297225,11.5732981 48.1278265,20.0897426 48.8490245,31.32415 L48.8490245,31.32415 C49.5702225,42.5585574 41.1417124,52.2567981 30.023303,52.9855204" id="Fill-18" fill="#131316"></path>
                                <path d="M29.711046,46.9157481 L27.7852305,47.0418963 C21.09765,47.4802852 15.3247305,42.3578037 14.8908681,35.6004519 L14.8908681,35.6004519 C14.4570057,28.8431 19.5265963,23.0099519 26.2141768,22.571563 L28.1399923,22.4451741 C34.8275728,22.0067852 40.6004923,27.1295074 41.0343547,33.8868593 L41.0343547,33.8868593 C41.4682171,40.6442111 36.3986265,46.4773593 29.711046,46.9157481" id="Fill-20" fill="#FFFFFF"></path>
                            </g>
                            <g id="Group-25" transform="translate(23.348993, 48.143093)">
                                <mask id="mask-4" fill="white">
                                    <use xlink:href="#path-3"></use>
                                </mask>
                                <g id="Clip-24"></g>
                                <path d="M12.8728718,6.41010741 L10.0664658,6.59403333 C0.320881879,7.23295926 -8.09190336,-0.23192963 -8.72423221,-10.0791889 L-8.72423221,-10.0791889 C-9.35632282,-19.9264481 -1.96851074,-28.4270037 7.77707315,-29.0659296 L10.5834792,-29.2498556 C20.3290631,-29.8887815 28.7418483,-22.4238926 29.3739389,-12.5766333 L29.3739389,-12.5766333 C30.0062678,-2.72937407 22.6184557,5.77118148 12.8728718,6.41010741" id="Fill-23" fill="#E6E6E6" mask="url(#mask-4)"></path>
                            </g>
                            <g id="Group-63" transform="translate(0.000000, 0.235685)">
                                <path d="M14.1146332,86.4187037 C12.7460963,86.8679259 11.2720124,86.8679259 9.90371376,86.4187037 C10.0044956,85.0982407 10.1059923,83.7512963 10.2082037,82.3831667 C10.284207,81.3643519 10.284207,80.3241111 10.2082037,79.3052963 C10.1059923,77.9371667 10.0044956,76.5902222 9.90371376,75.2697593 C11.2720124,74.820537 12.7460963,74.820537 14.1146332,75.2697593 C14.0138513,76.5902222 13.9121164,77.9371667 13.8101433,79.3052963 C13.7341399,80.3241111 13.7341399,81.3643519 13.8101433,82.3831667 C13.9121164,83.7512963 14.0136131,85.0982407 14.1146332,86.4187037" id="Fill-26" fill="#8CC63F"></path>
                                <path d="M14.1146332,73.9880796 C12.7460963,74.4373019 11.2720124,74.4373019 9.90371376,73.9880796 C10.0044956,72.6676167 10.1059923,71.3206722 10.2082037,69.9525426 C10.284207,68.9337278 10.284207,67.893487 10.2082037,66.8746722 C10.1059923,65.5065426 10.0044956,64.1595981 9.90371376,62.8391352 C11.2720124,62.389913 12.7460963,62.389913 14.1146332,62.8391352 C14.0138513,64.1595981 13.9121164,65.5065426 13.8101433,66.8746722 C13.7341399,67.893487 13.7341399,68.9337278 13.8101433,69.9525426 C13.9121164,71.3206722 14.0136131,72.6676167 14.1146332,73.9880796" id="Fill-28" fill="#8CC63F"></path>
                                <path d="M20.0613836,73.9164111 C19.2682326,73.9166519 18.4622158,73.7555963 17.6886017,73.4154296 C15.2121789,72.3270407 13.8376856,69.7434111 14.1502762,67.1665222 L10.8895178,65.9803926 C8.14887013,64.9834852 6.18564866,62.5551333 5.76560503,59.6426519 C5.34579966,56.7304111 6.54183993,53.8369481 8.88698423,52.091337 L14.2212762,48.1208 C16.8697191,46.1498556 20.5986487,46.7206519 22.5497191,49.3969667 C24.3192393,51.8243556 24.0183232,55.1497074 21.9712359,57.2181519 L22.0100715,57.2323556 C24.0497728,57.9743185 25.7123164,59.5530963 26.5712258,61.5640037 C27.4303735,63.5749111 27.4275144,65.8802444 26.5631252,67.8889852 L25.5262393,70.2971148 C24.5508232,72.5634481 22.3605446,73.9164111 20.0613836,73.9164111" id="Fill-30" fill="#131316"></path>
                                <path d="M51.3596369,17.6476204 L53.740043,17.4627315 C58.5006168,17.0931944 62.0689624,12.8876944 61.7032409,8.07721296 C61.3372812,3.26697222 57.175204,-0.338601852 52.4146302,0.0311759259 C47.6538181,0.400712963 44.0857107,4.60621296 44.4514322,9.41669444 L44.6341738,11.8216944 C44.8750497,15.3003981 47.8951705,17.9165278 51.3596369,17.6476204" id="Fill-32" fill="#000000"></path>
                                <g id="Group-36" transform="translate(0.000000, 3.370370)">
                                    <mask id="mask-6" fill="white">
                                        <use xlink:href="#path-5"></use>
                                    </mask>
                                    <g id="Clip-35"></g>
                                    <path d="M11.6947721,17.3565648 L9.31436611,17.5414537 C4.55379228,17.9109907 0.391476846,14.3056574 0.0257553691,9.49517593 C-0.339966107,4.68469444 3.22814128,0.479194444 7.98895336,0.109657407 C12.7497654,-0.25987963 16.9118426,3.3454537 17.2775641,8.15593519 L17.460544,10.5609352 C17.748356,14.0360278 15.1592386,17.0876574 11.6947721,17.3565648" id="Fill-34" fill="#000000" mask="url(#mask-6)"></path>
                                </g>
                                <path d="M46.6145258,46.2822148 L46.6145258,46.2822148 C39.0399218,50.4874741 29.9245225,51.2669926 21.7647641,48.4029 L21.0578614,48.1465111 C12.8273413,45.2881963 7.16282785,38.1343444 6.53431107,29.8709185 L6.38039832,27.8467704 C5.36471711,14.4871037 16.0402104,2.7351037 30.2044721,1.63564074 C44.3687339,0.535937037 56.693905,10.4782889 57.7114923,23.8617889 L57.8835124,26.1240296 C58.5046433,34.2921222 54.1221802,42.1301593 46.6145258,46.2822148" id="Fill-37" fill="#FFFFFF"></path>
                                <path d="M30.3199305,3.15469074 C16.9969473,4.18891296 6.93210168,15.2133944 7.88393054,27.729987 L8.03784329,29.7541352 C8.61942383,37.4034315 13.9225044,44.0572648 21.5478567,46.7058944 L22.2742963,46.9692648 C30.044746,49.6966167 38.6574272,48.9616352 45.8884674,44.9468019 L45.8906117,44.9455981 C52.834793,41.1053019 56.9523164,33.7631907 56.3802661,26.2407648 L56.208246,23.9782833 C55.2564171,11.4616907 43.6429138,2.12046852 30.3199305,3.15469074 M34.2909272,51.5411722 C29.9225211,51.8803759 25.4871654,51.3223389 21.2700513,49.8422648 L20.5483768,49.5803389 C11.8034641,46.5433944 5.70508826,38.8500426 5.03106477,29.9876537 L4.87715201,27.9632648 C3.79809497,13.7715981 15.1080614,1.27956111 30.0888232,0.116542593 C45.0700614,-1.04647593 58.1359674,9.55309815 59.2150245,23.7450056 L59.3870446,26.007487 C60.0496319,34.7213389 55.3202695,43.2043204 47.3384876,47.6187833 C43.2774305,49.8728389 38.8206319,51.1896907 34.2909272,51.5411722" id="Fill-39" fill="#000000"></path>
                                <path d="M13.3356822,19.4883 C15.5404943,15.2120222 20.2152963,13.5610222 23.7772091,15.8003926 C27.3391218,18.039763 28.4391453,23.3218556 26.2343332,27.5981333 C24.0295211,31.8744111 19.3547191,33.5254111 15.7928064,31.2860407 C12.2311319,29.0464296 11.1308701,23.7645778 13.3356822,19.4883" id="Fill-41" fill="#000000"></path>
                                <path d="M45.7039389,43.1274519 L45.7020329,43.1286556 C38.4983919,47.1276 29.9188282,47.8596926 22.1769691,45.1424519 L21.4569624,44.8814889 C13.850194,42.2396 8.56021745,35.6009333 7.97982819,27.9684889 L8.13159664,29.9637481 C8.71198591,37.5961926 14.0019624,44.2348593 21.6084926,46.8769889 L22.3287376,47.1379519 C30.0705966,49.8549519 38.6499221,49.1228593 45.8535631,45.1239148 L45.8557074,45.1227111 C52.782496,41.2918037 56.8897745,33.9663037 56.3191537,26.4604889 L56.1673852,24.4652296 C56.738006,31.9710444 52.6309658,39.2965444 45.7039389,43.1274519" id="Fill-43" fill="#E6E6E6"></path>
                                <path d="M36.0322856,33.0334093 L33.8617822,34.6535944 C33.1930003,35.1384463 32.3159836,35.2065759 31.6066983,34.828613 L29.2170003,33.5625574 C28.5596547,33.2060204 28.1317487,32.551687 28.075997,31.8174278 C27.9854601,30.6274463 28.8646211,29.5915389 30.0423158,29.5000574 L34.6025171,29.1459278 C35.7802117,29.054687 36.8054232,29.9427796 36.8959601,31.1327611 C36.9517117,31.8670204 36.6298292,32.6048907 36.0322856,33.0334093" id="Fill-45" fill="#000000"></path>
                                <path d="M33.1597161,40.3363519 C32.6062497,40.3792037 32.1230685,39.9607963 32.0804208,39.4015556 L31.6818201,34.1606296 C31.6394107,33.6013889 32.0537362,33.1129259 32.6072027,33.0700741 C33.1606691,33.0269815 33.6438503,33.4456296 33.686498,34.0048704 L34.0848604,39.2457963 C34.1275081,39.805037 33.7131826,40.2935 33.1597161,40.3363519" id="Fill-47" fill="#000000"></path>
                                <polygon id="Fill-49" fill="#000000" points="25.6872758 37.5272444 40.1198128 36.406837 40.4509872 40.7615963 26.0184503 41.8820037"></polygon>
                                <path d="M27.0671775,38.7699 C27.4062144,39.9151037 28.522201,40.668863 29.6998956,40.5773815 L36.5904695,40.0424556 C37.7931809,39.9490481 38.7569225,39.0339926 38.9208419,37.8750667 C38.9170299,37.8245111 38.9363285,37.7465111 38.9325164,37.6959556 L26.9804527,38.6237704 C27.0323923,38.6451963 27.0614594,38.6940667 27.0671775,38.7699" id="Fill-51" fill="#FFFFFF"></path>
                                <path d="M39.4567252,37.6297759 C39.4605372,37.6803315 39.4393326,37.7330537 39.4431446,37.7836093 C39.2811312,38.967813 38.2904668,39.8595167 37.1127721,39.9509981 L29.2198594,40.5636833 C28.017148,40.6570907 26.9264164,39.9014056 26.5871413,38.7562019 C26.5833292,38.7056463 26.5545003,38.6567759 26.5506883,38.6062204 L26.5487822,38.5809426 L39.4567252,37.6297759 Z M40.3802017,35.5206463 L25.2960372,36.6916093 C24.7449534,36.7344611 24.3284836,37.2253315 24.370893,37.7821648 L24.374705,37.8329611 C24.7366144,42.5926463 28.8648594,46.1686093 33.5753997,45.8029241 C38.2861782,45.4372389 41.8252185,41.2659241 41.4633091,36.5062389 L41.459497,36.4556833 C41.4151815,35.8733315 40.9312856,35.4777944 40.3802017,35.5206463 L40.3802017,35.5206463 Z" id="Fill-53" fill="#000000"></path>
                                <path d="M36.5728386,42.794363 C36.6133419,43.3259185 35.2197883,43.8926222 33.4657547,44.0288815 C31.7117211,44.1649 30.2507413,43.845437 30.2085701,43.288363 C30.1661607,42.7315296 31.577107,42.3928074 33.3309023,42.2565481 C35.0849359,42.1202889 36.5323352,42.2628074 36.5728386,42.794363" id="Fill-55" fill="#EDAC9F"></path>
                                <path d="M18.4172094,19.9651352 C19.1998772,18.4472648 20.8590852,17.8613019 22.1232664,18.6562278 C23.3874477,19.450913 23.7779477,21.3258019 22.9952799,22.8436722 C22.2128503,24.3613019 20.5536423,24.9475056 19.2894611,24.1525796 C18.0250416,23.3576537 17.6345416,21.4830056 18.4172094,19.9651352" id="Fill-57" fill="#FFFFFF"></path>
                                <path d="M49.5993134,16.6730296 C46.773847,12.7872333 41.9043906,11.8772333 38.7227329,14.6402148 C35.5413134,17.4029556 35.2527866,22.7929 38.0780148,26.6786963 C40.9034812,30.5642519 45.7729376,31.4744926 48.9545953,28.7115111 C52.1360148,25.9485296 52.4247799,20.5588259 49.5993134,16.6730296" id="Fill-59" fill="#000000"></path>
                                <path d="M44.6495174,17.928637 C43.646702,16.5494333 41.9184,16.2263593 40.7890711,17.207137 C39.6597423,18.1876741 39.5572926,20.1008407 40.5603463,21.4800444 C41.5631617,22.8592481 43.2914638,23.1820815 44.4205544,22.2015444 C45.5498832,21.2207667 45.6523329,19.3078407 44.6495174,17.928637" id="Fill-61" fill="#FFFFFF"></path>
                            </g>
                        </g>
                    </g>
                </g>
            </g>
        </g>
    </g>
</svg>