<?xml version="1.0" encoding="UTF-8" standalone="no"?>
<svg width="64px" height="63px" viewBox="0 0 64 63" version="1.1" xmlns="http://www.w3.org/2000/svg" xmlns:xlink="http://www.w3.org/1999/xlink">
    <!-- Generator: Sketch 40.1 (33804) - http://www.bohemiancoding.com/sketch -->
    <title>1f389</title>
    <desc>Created with Sketch.</desc>
    <defs>
        <polygon id="path-1" points="0 66.3020833 66.3020833 66.3020833 66.3020833 0 0 0"></polygon>
    </defs>
    <g id="Page-1" stroke="none" stroke-width="1" fill="none" fill-rule="evenodd">
        <g id="tutorial-5" transform="translate(-564.000000, -409.000000)">
            <g id="1f389" transform="translate(563.000000, 407.000000)">
                <g id="svg2">
                    <g id="g10" transform="translate(33.151042, 33.151042) scale(1, -1) translate(-33.151042, -33.151042) ">
                        <g id="g12">
                            <g id="g14-Clipped">
                                <mask id="mask-2" fill="white">
                                    <use xlink:href="#path-1"></use>
                                </mask>
                                <g id="path18"></g>
                                <g id="g14" mask="url(#mask-2)">
                                    <g id="g20" transform="translate(1.092240, 0.892810)" fill="#DD2E44">
                                        <path d="M20.9375,50.5989583 C20.7420833,50.4035417 20.593776,50.1679948 20.4698958,49.9097656 L20.4559375,49.923724 L0.886354167,5.8415625 L0.905546875,5.82236979 C0.542630208,5.11921875 1.14981771,3.68848958 2.39385417,2.44270833 C3.63614583,1.20041667 5.066875,0.593229167 5.77002604,0.956145833 L5.78747396,0.938697917 L49.873125,20.5065365 L49.8591667,20.5222396 C50.1173958,20.644375 50.3511979,20.7926823 50.5483594,20.9898437 C53.273724,23.7152083 48.8541667,32.5525781 40.6780729,40.7286719 C32.5019792,48.9065104 23.6628646,53.3243229 20.9375,50.5989583" id="path22"></path>
                                    </g>
                                    <g id="g24" transform="translate(1.744792, 1.744792)" fill="#EA596E">
                                        <path d="M22.6822917,41.875 L0.725833333,6.09630208 L0.233802083,4.98835937 L0.252994792,4.97091146 C-0.109921875,4.26601562 0.497265625,2.83703125 1.74130208,1.59125 C2.14609375,1.18645833 2.56484375,0.879375 2.97835937,0.619401042 L29.6614583,33.1510417 L22.6822917,41.875 L22.6822917,41.875 Z" id="path26"></path>
                                    </g>
                                    <g id="g28" transform="translate(20.957914, 20.822518)" fill="#A0041E">
                                        <path d="M20.9375,20.9375 C29.0856771,12.7858333 33.6099219,4.09677083 31.038099,1.52669271 C28.4680208,-1.04338542 19.7789583,3.47911458 11.6255469,11.6272917 C3.475625,19.7789583 -1.046875,28.4697656 1.52320313,31.0415885 C4.09502604,33.6116667 12.7840885,29.0874219 20.9375,20.9375" id="path30"></path>
                                    </g>
                                    <g id="g32" transform="translate(27.200953, 39.066932)" fill="#AA8DD8">
                                        <path d="M6.97916667,1.74479167 C6.63195312,1.46388021 6.17830729,1.31731771 5.69848958,1.36966146 C4.18401042,1.53367187 2.9103125,2.06059896 2.01872396,2.89286458 C1.07479167,3.77398437 0.608932292,4.95520833 0.736302083,6.14166667 C0.959635417,8.22145833 3.04640625,10.1302604 6.60403646,9.74466146 C7.98765625,9.59635417 8.6053125,10.041276 8.62450521,10.2541406 C8.64893229,10.4652604 8.14119792,11.0323177 6.75932292,11.1823698 C5.24309896,11.3463802 3.97114583,11.8733073 3.0778125,12.7055729 C2.13388021,13.5866927 1.66627604,14.7696615 1.79539062,15.954375 C2.02221354,18.0341667 4.10723958,19.9429687 7.66138021,19.5573698 C8.66986979,19.4491927 9.20028646,19.6585677 9.42536458,19.7929167 C9.60682292,19.9028385 9.67835937,20.007526 9.68533854,20.066849 C9.70453125,20.2779687 9.20377604,20.845026 7.81666667,20.9950781 C6.86052083,21.0997656 6.16609375,21.9582031 6.27078125,22.9178385 C6.37372396,23.8757292 7.23216146,24.5684115 8.19179687,24.463724 C11.7459375,24.0816146 13.3790625,21.7732552 13.1539844,19.6917187 C12.9289062,17.6119271 10.8438802,15.7048698 7.28625,16.088724 C6.27776042,16.1986458 5.74908854,15.9892708 5.52401042,15.8549219 C5.34429687,15.745 5.27101562,15.6385677 5.26403646,15.5809896 C5.24135417,15.368125 5.74559896,14.8010677 7.13270833,14.6510156 C10.686849,14.2689062 12.319974,11.9605469 12.0948958,9.87901042 C11.8698177,7.79921875 9.78304687,5.89041667 6.22890625,6.27601562 C5.22041667,6.38419271 4.69,6.1765625 4.46317708,6.04221354 C4.28346354,5.93229167 4.21367187,5.82585937 4.20669271,5.76653646 C4.18401042,5.55541667 4.68825521,4.98835937 6.07361979,4.83830729 C7.02976562,4.73536458 7.7259375,3.87518229 7.61950521,2.91729167 C7.56890625,2.43747396 7.32638021,2.02570312 6.97916667,1.74479167" id="path34"></path>
                                    </g>
                                    <g id="g36" transform="translate(51.752440, 1.993599)" fill="#77B255">
                                        <path d="M3.48958333,22.6822917 C6.93205729,23.6541406 9.30671875,22.118724 9.87203125,20.1034896 C10.4373437,18.09 9.2125,15.5408594 5.77351562,14.5742448 C4.43002604,14.1973698 4.02697917,13.5552865 4.08106771,13.349401 C4.14039062,13.1435156 4.82260417,12.805026 6.16260417,13.1853906 C9.60333333,14.1520052 11.9779948,12.6165885 12.5433073,10.603099 C13.1138542,8.58786458 11.8855208,6.04221354 8.44304687,5.07210938 C7.10130208,4.69523438 6.69651042,4.05140625 6.75583333,3.84726563 C6.81341146,3.643125 7.49388021,3.30638021 8.835625,3.68151042 C9.76210937,3.94322917 10.7269792,3.40234375 10.9886979,2.47585937 C11.2469271,1.54763021 10.7077865,0.584505208 9.7778125,0.322786458 C6.34057292,-0.645572917 3.96242187,0.886354167 3.39361979,2.90333333 C2.82830729,4.91682292 4.05489583,7.46247396 7.49911458,8.43257813 C8.84085937,8.81119792 9.24565104,9.45153646 9.18632812,9.65742188 C9.12875,9.8615625 8.45002604,10.2017969 7.10828125,9.82492188 C3.66580729,8.85481771 1.29114583,10.3867448 0.724088542,12.403724 C0.15703125,14.4189583 1.38361979,16.9646094 4.82783854,17.9347135 C6.16609375,18.3098438 6.57088542,18.9554167 6.51330729,19.1578125 C6.45398438,19.3654427 5.77700521,19.7039323 4.43351562,19.3253125 C3.50528646,19.0635938 2.54390625,19.6044792 2.2821875,20.5327083 C2.02046875,21.4591927 2.56135417,22.4223177 3.48958333,22.6822917" id="path38"></path>
                                    </g>
                                    <g id="g40" transform="translate(38.387161, 29.381943)" fill="#AA8DD8">
                                        <path d="M3.48958333,0 C2.97661458,0 2.470625,0.225078125 2.12515625,0.654296875 C1.52320313,1.40804687 1.64533854,2.50552083 2.39734375,3.10747396 C2.77770833,3.4128125 11.850625,10.5385417 24.673099,8.70476562 C25.6275,8.56867187 26.288776,7.68580729 26.1526823,6.73140625 C26.0165885,5.77875 25.1407031,5.10875 24.1775781,5.25182292 C12.8486458,6.86052083 4.65859375,0.446666667 4.57833333,0.382109375 C4.25554688,0.123880208 3.87169271,0 3.48958333,0" id="path42"></path>
                                    </g>
                                    <g id="g44" transform="translate(4.805854, 36.640625)" fill="#77B255">
                                        <path d="M6.97916667,0 C6.81341146,0 6.64416667,0.0244270833 6.47666667,0.07328125 C5.55367188,0.350703125 5.03023438,1.32429688 5.30765625,2.24729167 C7.28450521,8.83039063 9.07640625,19.3357813 6.87447917,22.0733594 C6.62671875,22.3839323 6.25682292,22.6892708 5.40536458,22.6247135 C3.76700521,22.5008333 3.92403646,19.0461458 3.92578125,19.01125 C3.9990625,18.0498698 3.27671875,17.2123698 2.31708333,17.1408333 C1.34174479,17.0815104 0.516458333,17.7898958 0.446666667,18.751276 C0.265208333,21.1573438 1.01546875,25.7915104 5.14190104,26.1038281 C6.98440104,26.2434115 8.51458333,25.6030729 9.59635417,24.2595833 C13.7332552,19.1107031 9.53354167,4.18226563 8.64893229,1.24229167 C8.42210938,0.486796875 7.72942708,0 6.97916667,0" id="path46"></path>
                                    </g>
                                    <g id="g48" transform="translate(43.619792, 44.492188)" fill="#5C913B">
                                        <path d="M5.234375,3.48958333 C5.234375,2.04489583 4.061875,0.872395833 2.6171875,0.872395833 C1.1725,0.872395833 0,2.04489583 0,3.48958333 C0,4.93427083 1.1725,6.10677083 2.6171875,6.10677083 C4.061875,6.10677083 5.234375,4.93427083 5.234375,3.48958333" id="path50"></path>
                                    </g>
                                    <g id="g52" transform="translate(1.744792, 29.661458)" fill="#9266CC">
                                        <path d="M6.97916667,3.48958333 C6.97916667,1.56333333 5.41583333,0 3.48958333,0 C1.56333333,0 0,1.56333333 0,3.48958333 C0,5.41583333 1.56333333,6.97916667 3.48958333,6.97916667 C5.41583333,6.97916667 6.97916667,5.41583333 6.97916667,3.48958333" id="path54"></path>
                                    </g>
                                    <g id="g56" transform="translate(55.833333, 27.044271)" fill="#5C913B">
                                        <path d="M5.234375,3.48958333 C5.234375,2.04489583 4.061875,0.872395833 2.6171875,0.872395833 C1.1725,0.872395833 0,2.04489583 0,3.48958333 C0,4.93427083 1.1725,6.10677083 2.6171875,6.10677083 C4.061875,6.10677083 5.234375,4.93427083 5.234375,3.48958333" id="path58"></path>
                                    </g>
                                    <g id="g60" transform="translate(40.130208, 6.106771)" fill="#5C913B">
                                        <path d="M5.234375,3.48958333 C5.234375,2.04489583 4.061875,0.872395833 2.6171875,0.872395833 C1.1725,0.872395833 0,2.04489583 0,3.48958333 C0,4.93427083 1.1725,6.10677083 2.6171875,6.10677083 C4.061875,6.10677083 5.234375,4.93427083 5.234375,3.48958333" id="path62"></path>
                                    </g>
                                    <g id="g64" transform="translate(47.109375, 54.088542)" fill="#FFCC4D">
                                        <path d="M6.97916667,3.48958333 C6.97916667,1.56333333 5.41583333,0 3.48958333,0 C1.56333333,0 0,1.56333333 0,3.48958333 C0,5.41583333 1.56333333,6.97916667 3.48958333,6.97916667 C5.41583333,6.97916667 6.97916667,5.41583333 6.97916667,3.48958333" id="path66"></path>
                                    </g>
                                    <g id="g68" transform="translate(55.833333, 46.236979)" fill="#FFCC4D">
                                        <path d="M5.234375,3.48958333 C5.234375,2.04489583 4.061875,0.872395833 2.6171875,0.872395833 C1.1725,0.872395833 0,2.04489583 0,3.48958333 C0,4.93427083 1.1725,6.10677083 2.6171875,6.10677083 C4.061875,6.10677083 5.234375,4.93427083 5.234375,3.48958333" id="path70"></path>
                                    </g>
                                    <g id="g72" transform="translate(50.598958, 39.257813)" fill="#FFCC4D">
                                        <path d="M5.234375,3.48958333 C5.234375,2.04489583 4.061875,0.872395833 2.6171875,0.872395833 C1.1725,0.872395833 0,2.04489583 0,3.48958333 C0,4.93427083 1.1725,6.10677083 2.6171875,6.10677083 C4.061875,6.10677083 5.234375,4.93427083 5.234375,3.48958333" id="path74"></path>
                                    </g>
                                    <g id="g76" transform="translate(12.213542, 20.065104)" fill="#FFCC4D">
                                        <path d="M5.234375,3.48958333 C5.234375,2.04489583 4.061875,0.872395833 2.6171875,0.872395833 C1.1725,0.872395833 0,2.04489583 0,3.48958333 C0,4.93427083 1.1725,6.10677083 2.6171875,6.10677083 C4.061875,6.10677083 5.234375,4.93427083 5.234375,3.48958333" id="path78"></path>
                                    </g>
                                </g>
                            </g>
                        </g>
                    </g>
                </g>
            </g>
        </g>
    </g>
</svg>