<?xml version="1.0" encoding="UTF-8" standalone="no"?>
<svg width="87px" height="82px" viewBox="0 0 87 82" version="1.1" xmlns="http://www.w3.org/2000/svg" xmlns:xlink="http://www.w3.org/1999/xlink">
    <!-- Generator: Sketch 40.1 (33804) - http://www.bohemiancoding.com/sketch -->
    <title>Page 1</title>
    <desc>Created with Sketch.</desc>
    <defs>
        <polygon id="path-1" points="0.0765385185 10.4403183 52.5059607 10.4403183 52.5059607 0.0370413793 0.0765385185 0.0370413793 0.0765385185 10.4403183"></polygon>
        <polygon id="path-3" points="7.85706667 1.67752966 7.85706667 0.183326578 0.0204503704 0.183326578 0.0204503704 1.67752966 7.85706667 1.67752966"></polygon>
        <path d="M0.127152813,5.84553422 C1.98194971,2.39977094 5.59116182,0.0617718833 9.73991852,0.0617718833 L11.4799185,0.0617718833 C15.6283802,0.0617718833 19.2377024,2.39977094 21.0925973,5.84553422 L0.127152813,5.84553422 L0.127152813,5.84553422 Z" id="path-5"></path>
    </defs>
    <g id="Page-1" stroke="none" stroke-width="1" fill="none" fill-rule="evenodd">
        <g id="tutorial-3" transform="translate(-558.000000, -400.000000)">
            <g id="Page-1" transform="translate(558.000000, 400.000000)">
                <g id="Group-31" transform="translate(5.585185, 0.189448)">
                    <path d="M71.4875348,36.2079592 C71.4875348,56.1896408 55.4896311,72.3877947 35.7554533,72.3877947 C16.0210607,72.3877947 0.0233718519,56.1896408 0.0233718519,36.2079592 C0.0233718519,16.2262775 16.0210607,0.0281236074 35.7554533,0.0281236074 C55.4896311,0.0281236074 71.4875348,16.2262775 71.4875348,36.2079592" id="Fill-1" fill="#FFD400"></path>
                    <g id="Group-5" transform="translate(10.311111, 71.342175)">
                        <mask id="mask-2" fill="white">
                            <use xlink:href="#path-1"></use>
                        </mask>
                        <g id="Clip-4"></g>
                        <path d="M52.5059607,5.23871247 C52.5059607,8.11154005 40.7693385,10.4403836 26.2912496,10.4403836 C11.8133756,10.4403836 0.0765385185,8.11154005 0.0765385185,5.23871247 C0.0765385185,2.36588488 11.8133756,0.0370413793 26.2912496,0.0370413793 C40.7693385,0.0370413793 52.5059607,2.36588488 52.5059607,5.23871247" id="Fill-3" fill="#E6E6E6" mask="url(#mask-2)"></path>
                    </g>
                    <path d="M47.1643111,55.482418 C44.8387259,55.482418 42.6957333,53.941166 42.0113333,51.5668637 C41.1804296,48.6840308 42.8147407,45.6648212 45.6618963,44.8235056 L53.2828815,42.5710069 C56.0288593,41.7594897 58.1477926,39.6157443 58.9512,36.8360095 L59.9268889,33.4605241 C60.7597259,30.5785613 63.7426444,28.9261634 66.5895852,29.7692191 C69.4360963,30.6129273 71.0682593,33.6332244 70.2349926,36.5154048 L69.2593037,39.8908902 C67.421563,46.2496966 62.573837,51.1544711 56.292437,53.0106727 L48.6714519,55.2631714 C48.1692148,55.4115109 47.6622519,55.482418 47.1643111,55.482418" id="Fill-6" fill="#131316"></path>
                    <path d="M37.4153059,76.0370775 L35.7895874,76.0370775 C25.5860985,76.0370775 17.3148689,67.6619846 17.3148689,57.3308546 L17.3148689,57.3308546 C17.3148689,46.9997247 25.5860985,38.6246318 35.7895874,38.6246318 L37.4153059,38.6246318 C47.61858,38.6246318 55.8900244,46.9997247 55.8900244,57.3308546 L55.8900244,57.3308546 C55.8900244,67.6619846 47.61858,76.0370775 37.4153059,76.0370775" id="Fill-8" fill="#131316"></path>
                    <path d="M37.4860444,70.4599682 L35.718763,70.4599682 C29.5817185,70.4599682 24.6063926,65.4225146 24.6063926,59.2083501 L24.6063926,59.2083501 C24.6063926,52.9944032 29.5817185,47.9569496 35.718763,47.9569496 L37.4860444,47.9569496 C43.6230889,47.9569496 48.5984148,52.9944032 48.5984148,59.2083501 L48.5984148,59.2083501 C48.5984148,65.4225146 43.6230889,70.4599682 37.4860444,70.4599682" id="Fill-10" fill="#FFFFFF"></path>
                    <path d="M28.1934563,73.3193973 C27.3494489,72.3216944 26.8390489,71.0792966 26.7352933,69.7699066 C27.8581304,69.3968828 29.0030933,69.0151586 30.1656711,68.6262568 C31.0313748,68.3369729 31.8884859,67.9759119 32.7013452,67.5582992 C33.7932489,66.9975671 34.8679674,66.4446653 35.9207748,65.9015512 C36.7647822,66.8990366 37.2751822,68.141652 37.3789378,69.4510419 C36.2561007,69.8240658 35.1111378,70.2057899 33.94856,70.5946918 C33.0828563,70.8839756 32.2257452,71.2448191 31.4128859,71.6626493 C30.3209822,72.2231639 29.2462637,72.7762833 28.1934563,73.3193973" id="Fill-12" fill="#8CC63F"></path>
                    <path d="M38.4348385,69.0062626 C37.5908311,68.0085597 37.0804311,66.7661618 36.9766756,65.4567719 C38.0995126,65.083748 39.2444756,64.7020239 40.4070533,64.313122 C41.272757,64.0238382 42.1298681,63.6627772 42.9427274,63.2451645 C44.0346311,62.6844324 45.1093496,62.1315305 46.162157,61.5884164 C47.0061644,62.5859019 47.5165644,63.8285172 47.62032,65.1379072 C46.497483,65.510931 45.35252,65.8926552 44.1899422,66.281557 C43.3242385,66.5708408 42.4671274,66.9316844 41.6542681,67.3495146 C40.5623644,67.9100292 39.4876459,68.4631485 38.4348385,69.0062626" id="Fill-14" fill="#8CC63F"></path>
                    <path d="M48.6762207,64.6931496 C47.8322133,63.6954467 47.3218133,62.4530488 47.2180578,61.1436589 C48.3408948,60.770635 49.4858578,60.3889109 50.6484356,60.000009 C51.5141393,59.7107252 52.3712504,59.3496642 53.1841096,58.9320515 C54.2760133,58.3713194 55.3507319,57.8184175 56.4035393,57.2753034 C57.2475467,58.2727889 57.7579467,59.5154042 57.8617022,60.8247942 C56.7388652,61.197818 55.5939022,61.5795422 54.4313244,61.968444 C53.5656207,62.2577279 52.7085096,62.6185714 51.8956504,63.0364016 C50.8037467,63.5969162 49.7290281,64.1500355 48.6762207,64.6931496" id="Fill-16" fill="#8CC63F"></path>
                    <path d="M58.917603,60.3800366 C58.0735956,59.3823337 57.5631956,58.1399358 57.45944,56.8305459 C58.582277,56.457522 59.72724,56.0757979 60.8898178,55.686896 C61.7555215,55.3976122 62.6126326,55.0365512 63.4254919,54.6189385 C64.5173956,54.0582064 65.5921141,53.5053045 66.6449215,52.9621905 C67.4889289,53.9596759 67.9993289,55.2022912 68.1030844,56.5116812 C66.9802474,56.884705 65.8352844,57.2664292 64.6727067,57.655331 C63.807003,57.9446149 62.9498919,58.3054584 62.1370326,58.7232886 C61.0451289,59.2838032 59.9704104,59.8369225 58.917603,60.3800366" id="Fill-18" fill="#8CC63F"></path>
                    <path d="M69.1590067,56.0669019 C68.3149993,55.0691989 67.8045993,53.8268011 67.7008437,52.5174111 C68.8236807,52.1443873 69.9686437,51.7626631 71.1312215,51.3737613 C71.9969252,51.0844775 72.8540363,50.7234164 73.6668956,50.3058037 C74.7587993,49.7450716 75.8335178,49.1921698 76.8863252,48.6490557 C77.7303326,49.6465411 78.2407326,50.8891565 78.3444881,52.1985464 C77.2216511,52.5715703 76.0766881,52.9532944 74.9141104,53.3421963 C74.0484067,53.6314801 73.1912956,53.9923236 72.3784363,54.4101538 C71.2865326,54.9706684 70.2118141,55.5237878 69.1590067,56.0669019" id="Fill-20" fill="#8CC63F"></path>
                    <g id="Group-24" transform="translate(73.466667, 53.289125)">
                        <mask id="mask-4" fill="white">
                            <use xlink:href="#path-3"></use>
                        </mask>
                        <g id="Clip-23"></g>
                        <path d="M0.0204503704,1.02982865 C1.06230222,1.46484191 2.44528,1.71192944 3.95714667,1.67364828 C5.46922815,1.63536711 6.83824296,1.31845995 7.85710963,0.831027586 C6.81525778,0.396014324 5.43249481,0.14892679 3.92041333,0.187207958 C2.40833185,0.225489125 1.03953185,0.542396286 0.0204503704,1.02982865" id="Fill-22" fill="#8CC63F" mask="url(#mask-4)"></path>
                    </g>
                    <path d="M62.2526674,71.4142133 C62.4737119,69.9490886 61.8097193,67.7772849 60.38786,65.7392477 C58.9660007,63.7012106 57.166497,62.3413592 55.7289563,62.0625156 L62.2526674,71.4142133 Z" id="Fill-25" fill="#8CC63F"></path>
                    <path d="M50.8837007,59.5115761 C52.2194193,58.9053851 53.6614711,57.162722 54.5817378,54.8477989 C55.5020044,52.5330934 55.6547378,50.2649342 55.1065304,48.8907273 L50.8837007,59.5115761 Z" id="Fill-27" fill="#8CC63F"></path>
                    <path d="M70.6730859,64.0032621 C69.91436,62.7358509 68.0285007,61.5015008 65.6464193,60.8620313 C63.2643378,60.2225618 61.0225304,60.3487156 59.7433081,61.0690976 L70.6730859,64.0032621 Z" id="Fill-29" fill="#8CC63F"></path>
                </g>
                <g id="Group-34" transform="translate(31.577778, 48.040907)">
                    <mask id="mask-6" fill="white">
                        <use xlink:href="#path-5"></use>
                    </mask>
                    <g id="Clip-33"></g>
                    <path d="M11.8776267,5.84553422 L9.34195259,5.84553422 C0.536693333,5.84553422 -6.60117333,-1.38199363 -6.60117333,-10.2975905 L-6.60117333,-10.2975905 C-6.60117333,-19.2131873 0.536693333,-26.4404976 9.34195259,-26.4404976 L11.8776267,-26.4404976 C20.6828859,-26.4404976 27.8209674,-19.2131873 27.8209674,-10.2975905 L27.8209674,-10.2975905 C27.8209674,-1.38199363 20.6828859,5.84553422 11.8776267,5.84553422" id="Fill-32" fill="#E6E6E6" mask="url(#mask-6)"></path>
                </g>
                <g id="Group-99" transform="translate(0.000000, 4.974594)">
                    <path d="M69.8170059,35.3770403 L69.1783615,35.2191305 C67.7704652,34.8706849 66.9077689,33.4327485 67.2519022,32.0069926 L67.2519022,32.0069926 C67.5958207,30.5814541 69.0161763,29.7079475 70.4240726,30.0563931 L71.062717,30.2143029 C72.4706133,30.562531 73.3333096,32.0006849 72.9893911,33.4262233 L72.9893911,33.4262233 C72.6452578,34.8519793 71.225117,35.7252684 69.8170059,35.3770403" id="Fill-35" fill="#FFFFFF"></path>
                    <path d="M72.4177044,28.149904 L72.3489637,28.4352727 C72.1970896,29.0645194 71.57026,29.4499411 70.9488007,29.2961639 L70.9488007,29.2961639 C70.3273415,29.1423867 69.9466896,28.5077024 70.0985637,27.8786732 L70.1673044,27.5933045 C70.3191785,26.9640578 70.9460081,26.5786361 71.5674674,26.7324133 L71.5674674,26.7324133 C72.1889267,26.8859729 72.5695785,27.5206573 72.4177044,28.149904" id="Fill-37" fill="#FFFFFF"></path>
                    <path d="M74.3743022,30.4886658 L74.154117,30.6241724 C73.6682059,30.922809 73.0353615,30.7662042 72.7404207,30.2744218 C72.44548,29.7826393 72.6001467,29.1418647 73.085843,28.8432281 L73.3060281,28.7077215 C73.7917244,28.4090849 74.4245689,28.5654721 74.7197244,29.0574721 C75.0146652,29.5492546 74.8599985,30.1900292 74.3743022,30.4886658" id="Fill-39" fill="#FFFFFF"></path>
                    <path d="M67.4558904,28.7773019 L67.58972,29.0002462 C67.8846607,29.4922462 68.5175052,29.6486334 69.0032015,29.3499968 L69.0032015,29.3499968 C69.4888978,29.0513602 69.6435644,28.4105857 69.3486237,27.9188032 L69.2147941,27.6956414 C68.9198533,27.2038589 68.2870089,27.0472541 67.8013126,27.3461082 L67.8013126,27.3461082 C67.3156163,27.6447448 67.1609496,28.2855194 67.4558904,28.7773019" id="Fill-41" fill="#FFFFFF"></path>
                    <path d="M15.8928163,74.8840095 C16.5922533,73.9717867 17.6781422,73.1654897 19.0121422,72.6619618 C20.3459274,72.158434 21.6880904,72.0481581 22.8066311,72.2741475 C22.1069793,73.1863703 21.0213052,73.9926674 19.6873052,74.4961952 C18.35352,74.9997231 17.011357,75.1099989 15.8928163,74.8840095" id="Fill-43" fill="#8CC63F"></path>
                    <path d="M42.1875889,74.8424223 C43.181537,74.2758175 44.4910481,73.9586928 45.9135519,74.0178546 C47.3358407,74.0770164 48.6152778,74.5020244 49.5600333,75.1493241 C48.5658704,75.7157114 47.2565741,76.0330536 45.8340704,75.9738918 C44.4115667,75.9145125 43.1323444,75.489722 42.1875889,74.8424223" id="Fill-45" fill="#8CC63F"></path>
                    <path d="M19.2872985,68.788408 C19.5772985,67.8848854 19.5772985,66.9117607 19.2872985,66.0084557 C18.435343,66.0750127 17.5662022,66.1420048 16.6833133,66.2094318 C16.0257652,66.2594584 15.3544689,66.2594584 14.6971356,66.2094318 C13.8142467,66.1420048 12.9451059,66.0750127 12.0931504,66.0084557 C11.8031504,66.9117607 11.8031504,67.8848854 12.0931504,68.788408 C12.9451059,68.7218509 13.8142467,68.6548589 14.6971356,68.5874318 C15.3544689,68.5371878 16.0257652,68.5371878 16.6833133,68.5874318 C17.5662022,68.6548589 18.435343,68.7218509 19.2872985,68.788408" id="Fill-47" fill="#8CC63F"></path>
                    <path d="M11.2659844,68.788408 C11.5559844,67.8848854 11.5559844,66.9117607 11.2659844,66.0084557 C10.4140289,66.0750127 9.54488815,66.1420048 8.66199926,66.2094318 C8.00445111,66.2594584 7.33315481,66.2594584 6.67582148,66.2094318 C5.79293259,66.1420048 4.92379185,66.0750127 4.0718363,66.0084557 C3.7818363,66.9117607 3.7818363,67.8848854 4.0718363,68.788408 C4.92379185,68.7218509 5.79293259,68.6548589 6.67582148,68.5874318 C7.33315481,68.5371878 8.00445111,68.5371878 8.66199926,68.5874318 C9.54488815,68.6548589 10.4140289,68.7218509 11.2659844,68.788408" id="Fill-49" fill="#8CC63F"></path>
                    <path d="M0,61.1658011 C1.22831111,60.7662414 3.18785185,61.0479125 5.13837037,62.0160345 C7.08888889,62.983939 8.50924444,64.379679 8.94961481,65.607504 L0,61.1658011 Z" id="Fill-51" fill="#8CC63F"></path>
                    <path d="M34.8055422,66.9433645 C33.7608978,66.9433645 32.7055126,66.6355926 31.7779422,65.9932955 L29.9522311,64.7284944 C23.6091793,60.334208 21.2934756,51.9939162 24.445883,44.8966748 L25.2759274,43.0278578 C26.4924237,40.2890143 29.6708237,39.0668446 32.3764163,40.2988021 C35.0813644,41.5305422 36.2881941,44.7494228 35.0716978,47.4882663 L34.2416533,49.3573008 C33.2249348,51.6461231 33.9716311,54.3358101 36.0170978,55.7528658 L37.8428089,57.0172318 C40.2906237,58.7129135 40.9174533,62.0970992 39.242757,64.5755873 C38.2024089,66.1150992 36.5186904,66.9433645 34.8055422,66.9433645" id="Fill-53" fill="#131316"></path>
                    <path d="M30.5168289,74.9504796 L30.5168289,74.9504796 C26.2295548,75.7313284 22.1289548,72.8452329 21.3577696,68.5042355 L21.0172881,66.5880021 C20.246103,62.2470048 23.0964807,58.0950207 27.3837548,57.3141719 L27.3837548,57.3141719 C31.6708141,56.5333231 35.7716289,59.4194186 36.5428141,63.7604159 L36.8832956,65.6766493 C37.6544807,70.0176467 34.804103,74.1696308 30.5168289,74.9504796" id="Fill-55" fill="#131316"></path>
                    <path d="M30.3536985,71.4732446 L29.4729578,71.6337645 C27.530817,71.9874302 25.6733133,70.6799979 25.3240244,68.7137379 L25.3240244,68.7137379 C24.9747356,66.7472605 26.2657726,64.8664806 28.2079133,64.5128149 L29.0886541,64.352295 C31.0307948,63.9986292 32.8882985,65.305844 33.2375874,67.2723215 L33.2375874,67.2723215 C33.5868763,69.2387989 32.2958393,71.1195788 30.3536985,71.4732446" id="Fill-57" fill="#FFFFFF"></path>
                    <path d="M29.6491704,61.0259225 L29.7192,61.4196095 C29.8732222,62.2872435 29.3035333,63.1174663 28.4464222,63.2736361 L28.4464222,63.2736361 C27.5893111,63.4295883 26.769363,62.8527607 26.6153407,61.9849093 L26.5453111,61.5912223 C26.3910741,60.7233708 26.9609778,59.8933655 27.8180889,59.7371958 L27.8180889,59.7371958 C28.6752,59.581026 29.4949333,60.1580711 29.6491704,61.0259225" id="Fill-59" fill="#FFFFFF"></path>
                    <path d="M33.3592585,62.8424727 L33.1590511,63.1341491 C32.7173919,63.7773162 31.8445993,63.9363135 31.209177,63.4893374 L31.209177,63.4893374 C30.5739696,63.0421438 30.41694,62.1584143 30.8585993,61.5150297 L31.0588067,61.2233533 C31.5004659,60.5801862 32.3732585,60.4211889 33.0084659,60.8683825 L33.0084659,60.8683825 C33.6438881,61.3153586 33.8009178,62.1993056 33.3592585,62.8424727" id="Fill-61" fill="#FFFFFF"></path>
                    <path d="M23.8168193,64.5804812 L24.1048859,64.7831973 C24.7400933,65.230391 25.6131007,65.0713936 26.0545452,64.4282265 L26.0545452,64.4282265 C26.4962044,63.7848419 26.3391748,62.9011125 25.7039674,62.4539188 L25.4159007,62.2512027 C24.7804785,61.8042265 23.9076859,61.9630064 23.4660267,62.606391 L23.4660267,62.606391 C23.0245822,63.2495581 23.1816119,64.1332875 23.8168193,64.5804812" id="Fill-63" fill="#FFFFFF"></path>
                    <path d="M53.8583489,74.9504796 L53.8583489,74.9504796 C58.145623,75.7313284 62.246223,72.8452329 63.0174081,68.5042355 L63.3578896,66.5880021 C64.1290748,62.2470048 61.278697,58.0950207 56.991423,57.3141719 L56.991423,57.3141719 C52.7043637,56.5333231 48.6035489,59.4194186 47.8323637,63.7604159 L47.4918822,65.6766493 C46.720697,70.0176467 49.5710748,74.1696308 53.8583489,74.9504796" id="Fill-65" fill="#131316"></path>
                    <path d="M54.0214578,71.4732446 L54.9021985,71.6337645 C56.8443393,71.9874302 58.701843,70.6799979 59.0511319,68.7137379 L59.0511319,68.7137379 C59.4004207,66.7472605 58.1093837,64.8664806 56.167243,64.5128149 L55.2865022,64.352295 C53.3443615,63.9986292 51.4868578,65.305844 51.1375689,67.2723215 L51.1375689,67.2723215 C50.78828,69.2387989 52.079317,71.1195788 54.0214578,71.4732446" id="Fill-67" fill="#FFFFFF"></path>
                    <path d="M54.7260074,61.0259225 L54.6559778,61.4196095 C54.5019556,62.2872435 55.0716444,63.1174663 55.9287556,63.2736361 L55.9287556,63.2736361 C56.7858667,63.4295883 57.6058148,62.8527607 57.759837,61.9849093 L57.8298667,61.5912223 C57.9841037,60.7233708 57.4142,59.8933655 56.5570889,59.7371958 C55.6999778,59.581026 54.8802444,60.1580711 54.7260074,61.0259225" id="Fill-69" fill="#FFFFFF"></path>
                    <path d="M51.0159193,62.8424727 L51.2161267,63.1341491 C51.6577859,63.7773162 52.5305785,63.9363135 53.1660007,63.4893374 L53.1660007,63.4893374 C53.8012081,63.0421438 53.9582378,62.1584143 53.5165785,61.5150297 L53.3163711,61.2233533 C52.8747119,60.5801862 52.0019193,60.4211889 51.3667119,60.8683825 L51.3667119,60.8683825 C50.7312896,61.3153586 50.57426,62.1993056 51.0159193,62.8424727" id="Fill-71" fill="#FFFFFF"></path>
                    <path d="M60.558337,64.5804812 L60.2702704,64.7831973 C59.635063,65.230391 58.7620556,65.0713936 58.3206111,64.4282265 L58.3206111,64.4282265 C57.8789519,63.7848419 58.0359815,62.9011125 58.6711889,62.4539188 L58.9592556,62.2512027 C59.5946778,61.8042265 60.4674704,61.9630064 60.9091296,62.606391 L60.9091296,62.606391 C61.3505741,63.2495581 61.1935444,64.1332875 60.558337,64.5804812" id="Fill-73" fill="#FFFFFF"></path>
                    <path d="M59.2250459,17.262392 L61.3740533,17.262392 C65.6720681,17.262392 69.16152,13.7292143 69.16152,9.37734164 C69.16152,5.02525146 65.6720681,1.49207374 61.3740533,1.49207374 C57.0760385,1.49207374 53.5865867,5.02525146 53.5865867,9.37734164 L53.5865867,11.553278 C53.56532,14.6986414 56.0973422,17.262392 59.2250459,17.262392" id="Fill-75" fill="#000000"></path>
                    <path d="M23.4150941,17.262392 L21.2660867,17.262392 C16.9680719,17.262392 13.47862,13.7292143 13.47862,9.37734164 C13.47862,5.02525146 16.9680719,1.49207374 21.2660867,1.49207374 C25.5641015,1.49207374 29.0535533,5.02525146 29.0535533,9.37734164 L29.0535533,11.553278 C29.07482,14.6986414 26.5427978,17.262392 23.4150941,17.262392" id="Fill-77" fill="#000000"></path>
                    <path d="M53.012043,42.6844149 L53.012043,42.6844149 C45.9265911,45.9376615 37.6923096,46.002261 30.5643244,42.8566801 L29.9473763,42.5767491 C22.7553763,39.4311682 18.1596281,32.6016775 18.1596281,25.1259745 L18.1596281,23.2947862 C18.1596281,11.2085952 28.542917,1.38447321 41.3306281,1.38447321 C54.1185541,1.38447321 64.501843,11.1870621 64.501843,23.2947862 L64.501843,25.3415236 C64.501843,32.7310939 60.0336948,39.474452 53.012043,42.6844149" id="Fill-79" fill="#FFFFFF"></path>
                    <path d="M41.330757,2.75874536 C29.3024163,2.75874536 19.5167422,11.9712387 19.5167422,23.2948515 L19.5167422,25.1260398 C19.5167422,32.0462308 23.8222756,38.400687 30.4854015,41.3150584 L31.1195348,41.6026021 C37.907683,44.5981034 45.6876311,44.5380716 52.4515052,41.4327294 L52.4534385,41.4318594 C58.9481496,38.4626764 63.144557,32.1469363 63.144557,25.3413714 L63.144557,23.2948515 C63.144557,11.9712387 53.358883,2.75874536 41.330757,2.75874536 M41.5928311,46.5539231 C37.6488311,46.5539231 33.7059052,45.7421883 30.0220459,44.1165438 L29.3922089,43.8307401 C21.7506015,40.4887507 16.8021274,33.1437692 16.8021274,25.1260398 L16.8021274,23.2948515 C16.8021274,10.4556525 27.8055867,0.0101140584 41.330757,0.0101140584 C54.8557126,0.0101140584 65.8591719,10.4556525 65.8591719,23.2948515 L65.8591719,25.3413714 C65.8591719,33.2251167 61.0355052,40.5242042 53.5704756,43.9368833 C49.7719052,45.6808515 45.6820459,46.5539231 41.5928311,46.5539231" id="Fill-81" fill="#000000"></path>
                    <path d="M24.9723726,16.2629708 C27.2429652,12.5710133 31.5515059,11.4123554 34.5954319,13.6750769 C37.6393578,15.9380159 38.2664022,20.7653581 35.9955948,24.4573156 C33.7250022,28.1492732 29.4166763,29.307931 26.3725356,27.0452095 C23.3286096,24.7822706 22.70178,19.9549284 24.9723726,16.2629708" id="Fill-83" fill="#000000"></path>
                    <path d="M52.4100674,39.7835072 L52.4081341,39.7843772 C45.6700378,42.877974 37.9197341,42.9373533 31.1569341,39.9531623 L30.5281711,39.6682286 C23.8815859,36.7608175 19.5865785,30.4209342 19.5865785,23.5157512 L19.5865785,25.3208387 C19.5865785,32.2260218 23.8815859,38.565905 30.5281711,41.4733162 L31.1569341,41.7582499 C37.9197341,44.7424408 45.6700378,44.6830615 52.4081341,41.5894647 L52.4100674,41.5885947 C58.8884526,38.6268069 63.0747637,32.3252048 63.0747637,25.5348653 L63.0747637,23.7297777 C63.0747637,30.5201172 58.8884526,36.8217194 52.4100674,39.7835072" id="Fill-85" fill="#E6E6E6"></path>
                    <path d="M44.4185052,30.9460387 L42.3599348,32.2515135 C41.7264459,32.6410679 40.9348533,32.6410679 40.3241348,32.2515135 L38.2655644,30.9460387 C37.699957,30.5795401 37.3605496,29.9611687 37.3605496,29.2969034 C37.3605496,28.2202456 38.2202385,27.3500016 39.283357,27.3500016 L43.4004978,27.3500016 C44.4638311,27.3500016 45.3233052,28.2202456 45.3233052,29.2969034 C45.3233052,29.9611687 44.9841126,30.6023782 44.4185052,30.9460387" id="Fill-87" fill="#000000"></path>
                    <path d="M41.330757,37.538382 C38.964357,37.538382 36.597957,36.6263767 34.7963052,34.8021485 C34.3546459,34.3549549 34.3546459,33.6297878 34.7963052,33.1825942 C35.2377496,32.7354005 35.9543719,32.7354005 36.3958163,33.1825942 C39.1173052,35.9379682 43.5444237,35.9377507 46.265483,33.1825942 C46.7069274,32.7354005 47.4235496,32.7354005 47.8649941,33.1825942 C48.3066533,33.6297878 48.3066533,34.3549549 47.8649941,34.8021485 C46.0633422,36.6263767 43.6969422,37.538382 41.330757,37.538382" id="Fill-89" fill="#000000"></path>
                    <path d="M41.3420133,37.3135889 C40.8423541,37.3135889 40.4372133,36.9033714 40.4372133,36.3974509 L40.4372133,31.6562414 C40.4372133,31.1501034 40.8423541,30.7398859 41.3420133,30.7398859 C41.8416726,30.7398859 42.2468133,31.1501034 42.2468133,31.6562414 L42.2468133,36.3974509 C42.2468133,36.9033714 41.8416726,37.3135889 41.3420133,37.3135889" id="Fill-91" fill="#000000"></path>
                    <path d="M29.5005615,17.0466255 C30.3065467,15.736148 31.8355985,15.3250605 32.916117,16.128095 C33.9966356,16.9313469 34.2189689,18.6446467 33.4131985,19.9551241 C32.6072133,21.2656016 31.0779467,21.6766891 29.997643,20.8736546 C28.9171244,20.0704027 28.6945763,18.3571029 29.5005615,17.0466255" id="Fill-93" fill="#FFFFFF"></path>
                    <path d="M57.7116326,16.2629708 C55.44104,12.5710133 51.1324993,11.4123554 48.0885733,13.6750769 C45.0446474,15.9380159 44.417603,20.7653581 46.6884104,24.4573156 C48.959003,28.1492732 53.2673289,29.307931 56.3114696,27.0452095 C59.3553956,24.7822706 59.9822252,19.9549284 57.7116326,16.2629708" id="Fill-95" fill="#000000"></path>
                    <path d="M53.1834222,17.0466255 C52.377437,15.736148 50.8483852,15.3250605 49.7678667,16.128095 C48.6873481,16.9313469 48.4650148,18.6446467 49.2707852,19.9551241 C50.0767704,21.2656016 51.606037,21.6766891 52.6863407,20.8736546 C53.7668593,20.0704027 53.9894074,18.3571029 53.1834222,17.0466255" id="Fill-97" fill="#FFFFFF"></path>
                </g>
            </g>
        </g>
    </g>
</svg>