<?xml version="1.0" encoding="UTF-8" standalone="no"?>
<svg width="97px" height="95px" viewBox="0 0 97 95" version="1.1" xmlns="http://www.w3.org/2000/svg" xmlns:xlink="http://www.w3.org/1999/xlink">
    <!-- Generator: Sketch 39.1 (31720) - http://www.bohemiancoding.com/sketch -->
    <title>1f389</title>
    <desc>Created with Sketch.</desc>
    <defs>
        <polygon id="path-1" points="0 100.9375 100.9375 100.9375 100.9375 0 0 0"></polygon>
    </defs>
    <g id="Page-1" stroke="none" stroke-width="1" fill="none" fill-rule="evenodd">
        <g id="State-3-Thank-You" transform="translate(-667.000000, -367.000000)">
            <g id="1f389" transform="translate(665.000000, 362.000000)">
                <g id="svg2">
                    <g id="g10" transform="translate(50.500000, 51.437500) scale(1, -1) translate(-50.500000, -51.437500) translate(0.000000, 0.937500)">
                        <g id="g12">
                            <g id="g14-Clipped" transform="translate(0.000000, 0.000000)">
                                <mask id="mask-2" fill="white">
                                    <use xlink:href="#path-1"></use>
                                </mask>
                                <g id="path18"></g>
                                <g id="g14" mask="url(#mask-2)">
                                    <g id="g20" transform="translate(1.662812, 1.359203)" fill="#DD2E44">
                                        <path d="M31.875,77.03125 C31.5775,76.73375 31.3517188,76.3751563 31.163125,75.9820313 L31.141875,76.0032813 L1.349375,8.893125 L1.37859375,8.86390625 C0.82609375,7.7934375 1.75046875,5.6153125 3.644375,3.71875 C5.535625,1.8275 7.71375,0.903125 8.78421875,1.455625 L8.81078125,1.4290625 L75.92625,31.2189062 L75.905,31.2428125 C76.298125,31.42875 76.6540625,31.6545312 76.9542188,31.9546875 C81.1032813,36.10375 74.375,49.5576562 61.9278125,62.0048438 C49.480625,74.4546875 36.0240625,81.1803125 31.875,77.03125" id="path22"></path>
                                    </g>
                                    <g id="g24" transform="translate(2.656250, 2.656250)" fill="#EA596E">
                                        <path d="M34.53125,63.75 L1.105,9.2809375 L0.3559375,7.59421875 L0.38515625,7.56765625 C-0.16734375,6.49453125 0.75703125,4.3190625 2.6509375,2.4225 C3.2671875,1.80625 3.9046875,1.33875 4.53421875,0.94296875 L45.15625,50.46875 L34.53125,63.75 L34.53125,63.75 Z" id="path26"></path>
                                    </g>
                                    <g id="g28" transform="translate(31.906078, 31.699953)" fill="#A0041E">
                                        <path d="M31.875,31.875 C44.2796875,19.465 51.1673438,6.236875 47.2520313,2.32421875 C43.339375,-1.5884375 30.11125,5.2965625 17.6985938,17.70125 C5.29125,30.11125 -1.59375,43.3420313 2.31890625,47.2573438 C6.23421875,51.17 19.4623438,44.2823438 31.875,31.875" id="path30"></path>
                                    </g>
                                    <g id="g32" transform="translate(41.410406, 59.475031)" fill="#AA8DD8">
                                        <path d="M10.625,2.65625 C10.0964062,2.22859375 9.40578125,2.00546875 8.6753125,2.08515625 C6.3696875,2.33484375 4.430625,3.13703125 3.07328125,4.4040625 C1.63625,5.74546875 0.92703125,7.54375 1.1209375,9.35 C1.4609375,12.51625 4.6378125,15.4221875 10.0539062,14.8351563 C12.1603125,14.609375 13.100625,15.2867188 13.1298437,15.6107813 C13.1670312,15.9321875 12.3940625,16.7954688 10.2903125,17.0239063 C7.98203125,17.2735938 6.045625,18.0757813 4.685625,19.3428125 C3.24859375,20.6842188 2.53671875,22.4851563 2.73328125,24.28875 C3.07859375,27.455 6.2528125,30.3609375 11.6635937,29.7739063 C13.1989062,29.6092188 14.0064062,29.9279688 14.3490625,30.1325 C14.6253125,30.2998438 14.7342187,30.4592188 14.7448437,30.5495313 C14.7740625,30.8709375 14.0117187,31.7342188 11.9,31.9626563 C10.444375,32.1220313 9.3871875,33.4289063 9.5465625,34.8898438 C9.70328125,36.348125 11.0101562,37.4026562 12.4710937,37.2432813 C17.881875,36.6615625 20.368125,33.1473438 20.0254687,29.9784375 C19.6828125,26.8121875 16.5085937,23.9089063 11.0925,24.4932813 C9.5571875,24.660625 8.75234375,24.341875 8.4096875,24.1373438 C8.13609375,23.97 8.02453125,23.8079688 8.01390625,23.7203125 C7.979375,23.39625 8.74703125,22.5329688 10.85875,22.3045313 C16.2695312,21.7228125 18.7557812,18.2085938 18.413125,15.0396875 C18.0704687,11.8734375 14.8935937,8.9675 9.4828125,9.55453125 C7.9475,9.71921875 7.14,9.403125 6.7946875,9.19859375 C6.52109375,9.03125 6.41484375,8.86921875 6.40421875,8.77890625 C6.3696875,8.4575 7.13734375,7.59421875 9.24640625,7.36578125 C10.7020312,7.2090625 11.761875,5.89953125 11.5998437,4.44125 C11.5228125,3.71078125 11.1535937,3.08390625 10.625,2.65625" id="path34"></path>
                                    </g>
                                    <g id="g36" transform="translate(78.787297, 3.035031)" fill="#77B255">
                                        <path d="M5.3125,34.53125 C10.5532813,36.0107813 14.1684375,33.6732813 15.0290625,30.6053125 C15.8896875,27.54 14.025,23.6592188 8.78953125,22.1876563 C6.74421875,21.6139063 6.130625,20.6364063 6.21296875,20.3229688 C6.30328125,20.0095313 7.341875,19.4942188 9.381875,20.0732813 C14.62,21.5448438 18.2351563,19.2073438 19.0957813,16.1420313 C19.964375,13.0740625 18.094375,9.19859375 12.8535938,7.72171875 C10.8109375,7.14796875 10.1946875,6.1678125 10.285,5.85703125 C10.3726563,5.54625 11.4085938,5.03359375 13.45125,5.6046875 C14.8617188,6.003125 16.330625,5.1796875 16.7290625,3.76921875 C17.1221875,2.35609375 16.3014063,0.88984375 14.885625,0.49140625 C9.6528125,-0.9828125 6.03234375,1.349375 5.16640625,4.42 C4.30578125,7.4853125 6.173125,11.3607812 11.4165625,12.8376563 C13.4592188,13.4140625 14.0754688,14.3889063 13.9851563,14.7023438 C13.8975,15.013125 12.8642188,15.5310938 10.8215625,14.9573438 C5.58078125,13.4804688 1.965625,15.8126563 1.10234375,18.8832813 C0.2390625,21.95125 2.10640625,25.8267188 7.34984375,27.3035938 C9.3871875,27.8746875 10.0034375,28.8575 9.91578125,29.165625 C9.82546875,29.4817188 8.79484375,29.9970313 6.74953125,29.420625 C5.33640625,29.0221875 3.8728125,29.845625 3.474375,31.25875 C3.0759375,32.6692188 3.899375,34.1354688 5.3125,34.53125" id="path38"></path>
                                    </g>
                                    <g id="g40" transform="translate(58.440156, 44.730719)" fill="#AA8DD8">
                                        <path d="M5.3125,0 C4.5315625,0 3.76125,0.34265625 3.2353125,0.99609375 C2.31890625,2.14359375 2.50484375,3.814375 3.6496875,4.73078125 C4.22875,5.195625 18.04125,16.04375 37.5620313,13.2520312 C39.015,13.0448437 40.0217188,11.7007812 39.8145313,10.2478125 C39.6073438,8.7975 38.2739063,7.7775 36.8076563,7.9953125 C19.560625,10.444375 7.0921875,0.68 6.97,0.58171875 C6.47859375,0.18859375 5.89421875,0 5.3125,0" id="path42"></path>
                                    </g>
                                    <g id="g44" transform="translate(7.316375, 55.781250)" fill="#77B255">
                                        <path d="M10.625,0 C10.3726563,0 10.115,0.0371875 9.86,0.1115625 C8.45484375,0.53390625 7.65796875,2.01609375 8.0803125,3.42125 C11.0898438,13.4432813 13.8178125,29.4365625 10.465625,33.6042187 C10.0884375,34.0770312 9.5253125,34.541875 8.2290625,34.4435937 C5.73484375,34.255 5.97390625,28.995625 5.9765625,28.9425 C6.088125,27.4789062 4.9884375,26.2039062 3.5275,26.095 C2.04265625,26.0046875 0.78625,27.083125 0.68,28.5467188 C0.40375,32.2096875 1.5459375,39.2646875 7.82796875,39.7401562 C10.6329688,39.9526562 12.9625,38.9778125 14.609375,36.9325 C20.9073438,29.0939062 14.51375,6.36703125 13.1670313,1.89125 C12.8217188,0.74109375 11.7671875,0 10.625,0" id="path46"></path>
                                    </g>
                                    <g id="g48" transform="translate(66.406250, 67.734375)" fill="#5C913B">
                                        <path d="M7.96875,5.3125 C7.96875,3.113125 6.18375,1.328125 3.984375,1.328125 C1.785,1.328125 0,3.113125 0,5.3125 C0,7.511875 1.785,9.296875 3.984375,9.296875 C6.18375,9.296875 7.96875,7.511875 7.96875,5.3125" id="path50"></path>
                                    </g>
                                    <g id="g52" transform="translate(2.656250, 45.156250)" fill="#9266CC">
                                        <path d="M10.625,5.3125 C10.625,2.38 8.245,0 5.3125,0 C2.38,0 0,2.38 0,5.3125 C0,8.245 2.38,10.625 5.3125,10.625 C8.245,10.625 10.625,8.245 10.625,5.3125" id="path54"></path>
                                    </g>
                                    <g id="g56" transform="translate(85.000000, 41.171875)" fill="#5C913B">
                                        <path d="M7.96875,5.3125 C7.96875,3.113125 6.18375,1.328125 3.984375,1.328125 C1.785,1.328125 0,3.113125 0,5.3125 C0,7.511875 1.785,9.296875 3.984375,9.296875 C6.18375,9.296875 7.96875,7.511875 7.96875,5.3125" id="path58"></path>
                                    </g>
                                    <g id="g60" transform="translate(61.093750, 9.296875)" fill="#5C913B">
                                        <path d="M7.96875,5.3125 C7.96875,3.113125 6.18375,1.328125 3.984375,1.328125 C1.785,1.328125 0,3.113125 0,5.3125 C0,7.511875 1.785,9.296875 3.984375,9.296875 C6.18375,9.296875 7.96875,7.511875 7.96875,5.3125" id="path62"></path>
                                    </g>
                                    <g id="g64" transform="translate(71.718750, 82.343750)" fill="#FFCC4D">
                                        <path d="M10.625,5.3125 C10.625,2.38 8.245,0 5.3125,0 C2.38,0 0,2.38 0,5.3125 C0,8.245 2.38,10.625 5.3125,10.625 C8.245,10.625 10.625,8.245 10.625,5.3125" id="path66"></path>
                                    </g>
                                    <g id="g68" transform="translate(85.000000, 70.390625)" fill="#FFCC4D">
                                        <path d="M7.96875,5.3125 C7.96875,3.113125 6.18375,1.328125 3.984375,1.328125 C1.785,1.328125 0,3.113125 0,5.3125 C0,7.511875 1.785,9.296875 3.984375,9.296875 C6.18375,9.296875 7.96875,7.511875 7.96875,5.3125" id="path70"></path>
                                    </g>
                                    <g id="g72" transform="translate(77.031250, 59.765625)" fill="#FFCC4D">
                                        <path d="M7.96875,5.3125 C7.96875,3.113125 6.18375,1.328125 3.984375,1.328125 C1.785,1.328125 0,3.113125 0,5.3125 C0,7.511875 1.785,9.296875 3.984375,9.296875 C6.18375,9.296875 7.96875,7.511875 7.96875,5.3125" id="path74"></path>
                                    </g>
                                    <g id="g76" transform="translate(18.593750, 30.546875)" fill="#FFCC4D">
                                        <path d="M7.96875,5.3125 C7.96875,3.113125 6.18375,1.328125 3.984375,1.328125 C1.785,1.328125 0,3.113125 0,5.3125 C0,7.511875 1.785,9.296875 3.984375,9.296875 C6.18375,9.296875 7.96875,7.511875 7.96875,5.3125" id="path78"></path>
                                    </g>
                                </g>
                            </g>
                        </g>
                    </g>
                </g>
            </g>
        </g>
    </g>
</svg>