<?xml version="1.0" encoding="UTF-8" standalone="no"?>
<svg width="140px" height="70px" viewBox="0 0 140 70" version="1.1" xmlns="http://www.w3.org/2000/svg" xmlns:xlink="http://www.w3.org/1999/xlink">
    <!-- Generator: Sketch 39.1 (31720) - http://www.bohemiancoding.com/sketch -->
    <title>nin</title>
    <desc>Created with Sketch.</desc>
    <defs></defs>
    <g id="Page-1" stroke="none" stroke-width="1" fill="none" fill-rule="evenodd">
        <g id="alt-+-3">
            <g id="nin">
                <rect id="Rectangle-3" fill="#D3DEE4" x="0" y="0" width="140" height="70" rx="3"></rect>
                <rect id="Rectangle-4" fill="#F4F8FB" x="4" y="4" width="29" height="62" rx="2"></rect>
                <rect id="Rectangle-4" fill="#F4F8FB" x="37" y="4" width="30" height="62" rx="2"></rect>
                <rect id="Rectangle-4" fill="#F4F8FB" x="71" y="4" width="31" height="62" rx="2"></rect>
                <path d="M125.5,34 L122,34 L122,30.5 C122,30.224 121.776,30 121.5,30 L120.5,30 C120.224,30 120,30.224 120,30.5 L120,34 L116.5,34 C116.224,34 116,34.224 116,34.5 L116,35.5 C116,35.776 116.224,36 116.5,36 L120,36 L120,39.5 C120,39.776 120.224,40 120.5,40 L121.5,40 C121.776,40 122,39.776 122,39.5 L122,36 L125.5,36 C125.776,36 126,35.776 126,35.5 L126,34.5 C126,34.224 125.776,34 125.5,34 L125.5,34 Z" id="Page-1" stroke="#F4F8FB" fill="#F4F8FB"></path>
            </g>
        </g>
    </g>
</svg>